<svg width="95" height="22" viewBox="0 0 95 22" fill="none" xmlns="http://www.w3.org/2000/svg">
<path d="M0.96043 17L7.53043 0.499999H9.96043L16.5404 17H13.7204L12.1004 12.7H5.40043L3.77043 17H0.96043ZM6.29043 10.4H11.2104L8.74043 4.02L6.29043 10.4ZM25.2815 17.32C23.2749 17.32 21.7615 16.8 20.7415 15.76C19.7215 14.72 19.2115 13.1767 19.2115 11.13V0.499999H21.8215V10.42C21.8215 11.92 22.0982 13.0167 22.6515 13.71C23.2115 14.4033 24.0882 14.75 25.2815 14.75C26.4749 14.75 27.3482 14.4033 27.9015 13.71C28.4615 13.0167 28.7415 11.92 28.7415 10.42V0.499999H31.3615V11.13C31.3615 13.1767 30.8515 14.72 29.8315 15.76C28.8115 16.8 27.2949 17.32 25.2815 17.32ZM35.9168 17V0.499999H41.0568C42.1635 0.499999 43.1235 0.693332 43.9368 1.08C44.7568 1.46667 45.3868 2.02333 45.8268 2.75C46.2735 3.47667 46.4968 4.35 46.4968 5.37C46.4968 6.21667 46.3368 6.97667 46.0168 7.65C45.7035 8.31667 45.2502 8.87 44.6568 9.31C44.0702 9.75 43.3635 10.0567 42.5368 10.23L47.9668 17H44.6468L39.7068 10.52H38.5368V17H35.9168ZM38.5368 8.32H40.2868C41.0135 8.32 41.6368 8.20667 42.1568 7.98C42.6768 7.74667 43.0735 7.41667 43.3468 6.99C43.6268 6.55667 43.7668 6.04 43.7668 5.44C43.7668 4.54 43.4602 3.84333 42.8468 3.35C42.2402 2.85 41.3868 2.6 40.2868 2.6H38.5368V8.32ZM48.7143 17L55.2843 0.499999H57.7143L64.2943 17H61.4743L59.8543 12.7H53.1543L51.5243 17H48.7143ZM54.0443 10.4H58.9643L56.4943 4.02L54.0443 10.4ZM70.6284 17L77.1984 0.499999H79.6284L86.2084 17H83.3884L81.7684 12.7H75.0684L73.4384 17H70.6284ZM75.9584 10.4H80.8784L78.4084 4.02L75.9584 10.4ZM89.1395 17V0.499999H91.7595V17H89.1395Z" fill="url(#paint0_linear_4_3189)"/>
<defs>
<linearGradient id="paint0_linear_4_3189" x1="0.44043" y1="11" x2="94.4404" y2="11" gradientUnits="userSpaceOnUse">
<stop stop-color="#ED0687"/>
<stop offset="1" stop-color="#FE6C0F"/>
</linearGradient>
</defs>
</svg>
