<svg width="768" height="309" viewBox="0 0 768 309" fill="none" xmlns="http://www.w3.org/2000/svg">
<path d="M46.44 35.64C42.4267 35.64 39.4 34.6 37.36 32.52C35.32 30.44 34.3 27.3533 34.3 23.26V2H39.52V21.84C39.52 24.84 40.0733 27.0333 41.18 28.42C42.3 29.8067 44.0533 30.5 46.44 30.5C48.8267 30.5 50.5733 29.8067 51.68 28.42C52.8 27.0333 53.36 24.84 53.36 21.84V2H58.6V23.26C58.6 27.3533 57.58 30.44 55.54 32.52C53.5 34.6 50.4667 35.64 46.44 35.64ZM66.7506 35V14.52H71.7306V16.98C72.4373 16.0733 73.3773 15.3333 74.5506 14.76C75.7373 14.1733 77.0906 13.88 78.6106 13.88C80.184 13.88 81.5573 14.22 82.7306 14.9C83.9173 15.5667 84.8373 16.5133 85.4906 17.74C86.144 18.9667 86.4706 20.42 86.4706 22.1V35H81.4906V23.14C81.4906 21.4333 81.064 20.12 80.2106 19.2C79.3706 18.2667 78.204 17.8 76.7106 17.8C75.684 17.8 74.7973 18.0133 74.0506 18.44C73.304 18.8533 72.7306 19.4133 72.3306 20.12C71.9306 20.8133 71.7306 21.5867 71.7306 22.44V35H66.7506ZM93.8209 35V0.599999H98.8009V35H93.8209ZM116.576 35.64C114.363 35.64 112.363 35.18 110.576 34.26C108.803 33.34 107.396 32.06 106.356 30.42C105.316 28.78 104.796 26.8933 104.796 24.76C104.796 22.6133 105.316 20.7267 106.356 19.1C107.396 17.46 108.803 16.18 110.576 15.26C112.35 14.34 114.35 13.88 116.576 13.88C118.79 13.88 120.783 14.34 122.556 15.26C124.343 16.18 125.75 17.46 126.776 19.1C127.816 20.7267 128.336 22.6133 128.336 24.76C128.336 26.8933 127.816 28.78 126.776 30.42C125.75 32.06 124.343 33.34 122.556 34.26C120.783 35.18 118.79 35.64 116.576 35.64ZM116.576 31.36C117.83 31.36 118.95 31.08 119.936 30.52C120.936 29.9467 121.723 29.1667 122.296 28.18C122.87 27.18 123.156 26.04 123.156 24.76C123.156 23.4667 122.87 22.3267 122.296 21.34C121.723 20.34 120.936 19.56 119.936 19C118.95 18.44 117.83 18.16 116.576 18.16C115.336 18.16 114.216 18.44 113.216 19C112.216 19.56 111.43 20.34 110.856 21.34C110.283 22.3267 109.996 23.4667 109.996 24.76C109.996 26.04 110.283 27.18 110.856 28.18C111.43 29.1667 112.216 29.9467 113.216 30.52C114.216 31.08 115.336 31.36 116.576 31.36ZM143.928 35.64C142.381 35.64 140.921 35.3667 139.548 34.82C138.188 34.26 136.988 33.4867 135.948 32.5C134.908 31.5133 134.088 30.36 133.488 29.04C132.901 27.72 132.608 26.2933 132.608 24.76C132.608 23.28 132.888 21.8867 133.448 20.58C134.021 19.26 134.814 18.1 135.828 17.1C136.854 16.1 138.054 15.3133 139.428 14.74C140.814 14.1667 142.308 13.88 143.908 13.88C145.241 13.88 146.514 14.0733 147.728 14.46C148.954 14.8467 149.968 15.3533 150.768 15.98L148.988 19.34C147.814 18.4467 146.368 18 144.648 18C143.234 18 142.014 18.3133 140.988 18.94C139.961 19.5533 139.174 20.38 138.628 21.42C138.081 22.4467 137.808 23.56 137.808 24.76C137.808 26.0267 138.094 27.1733 138.668 28.2C139.241 29.2133 140.048 30.02 141.088 30.62C142.128 31.22 143.328 31.52 144.688 31.52C145.528 31.52 146.314 31.4 147.048 31.16C147.794 30.92 148.434 30.5933 148.968 30.18L150.768 33.54C149.954 34.1533 148.948 34.6533 147.748 35.04C146.548 35.44 145.274 35.64 143.928 35.64ZM156.204 35V0.599999H161.184V22.34L168.984 14.52H175.444L165.664 24.42L175.904 35H169.504L161.184 26.32V35H156.204ZM197.681 35.64C195.828 35.64 194.381 35.04 193.341 33.84C192.314 32.64 191.801 30.9533 191.801 28.78V18.3H189.301V14.52H191.801V6.86H196.781V14.52H201.501V18.3H196.781V28.44C196.781 29.3333 196.961 30.02 197.321 30.5C197.681 30.9667 198.194 31.2 198.861 31.2C199.554 31.2 200.188 30.9867 200.761 30.56L202.021 34.54C201.421 34.8867 200.734 35.1533 199.961 35.34C199.188 35.54 198.428 35.64 197.681 35.64ZM207.727 35V0.579998H212.707V16.98C213.414 16.0733 214.354 15.3333 215.527 14.76C216.714 14.1733 218.067 13.88 219.587 13.88C221.161 13.88 222.534 14.22 223.707 14.9C224.894 15.5667 225.814 16.5133 226.467 17.74C227.121 18.9667 227.447 20.42 227.447 22.1V35H222.467V23.14C222.467 21.4333 222.041 20.12 221.187 19.2C220.347 18.2667 219.181 17.8 217.687 17.8C216.661 17.8 215.774 18.0133 215.027 18.44C214.281 18.8533 213.707 19.4133 213.307 20.12C212.907 20.8133 212.707 21.5867 212.707 22.44V35H207.727ZM244.558 35.64C242.371 35.64 240.411 35.1667 238.678 34.22C236.958 33.2733 235.591 31.98 234.578 30.34C233.578 28.7 233.078 26.8533 233.078 24.8C233.078 23.28 233.364 21.86 233.938 20.54C234.511 19.22 235.304 18.06 236.318 17.06C237.331 16.06 238.511 15.28 239.858 14.72C241.204 14.16 242.658 13.88 244.218 13.88C246.351 13.88 248.218 14.32 249.818 15.2C251.431 16.08 252.684 17.3067 253.578 18.88C254.484 20.4533 254.938 22.2867 254.938 24.38C254.938 24.5533 254.931 24.7 254.918 24.82C254.904 24.9267 254.878 25.1133 254.838 25.38H238.158C238.158 26.62 238.438 27.7133 238.998 28.66C239.558 29.5933 240.338 30.3267 241.338 30.86C242.351 31.38 243.511 31.64 244.818 31.64C246.058 31.64 247.158 31.3933 248.118 30.9C249.091 30.3933 249.971 29.6267 250.758 28.6L254.378 30.46C253.404 32.0867 252.051 33.36 250.318 34.28C248.598 35.1867 246.678 35.64 244.558 35.64ZM238.378 22.26H249.998C249.824 21.3267 249.471 20.52 248.938 19.84C248.404 19.16 247.731 18.6333 246.918 18.26C246.104 17.8733 245.198 17.68 244.198 17.68C243.144 17.68 242.204 17.8667 241.378 18.24C240.551 18.6133 239.878 19.14 239.358 19.82C238.838 20.5 238.511 21.3133 238.378 22.26ZM277.915 35.64C276.062 35.64 274.615 35.04 273.575 33.84C272.549 32.64 272.035 30.9533 272.035 28.78V18.3H269.535V14.52H272.035V6.86H277.015V14.52H281.735V18.3H277.015V28.44C277.015 29.3333 277.195 30.02 277.555 30.5C277.915 30.9667 278.429 31.2 279.095 31.2C279.789 31.2 280.422 30.9867 280.995 30.56L282.255 34.54C281.655 34.8867 280.969 35.1533 280.195 35.34C279.422 35.54 278.662 35.64 277.915 35.64ZM287.962 35V14.52H292.942V17.5C293.662 16.3267 294.562 15.4333 295.642 14.82C296.722 14.1933 297.908 13.88 299.202 13.88C299.882 13.88 300.575 13.9733 301.282 14.16C302.002 14.3333 302.615 14.5667 303.122 14.86L301.062 19.08C300.622 18.8133 300.108 18.6 299.522 18.44C298.948 18.28 298.415 18.2 297.922 18.2C297.068 18.2 296.262 18.42 295.502 18.86C294.742 19.3 294.122 19.8667 293.642 20.56C293.175 21.2533 292.942 22 292.942 22.8V35H287.962ZM315.566 35.64C313.673 35.64 311.953 35.1733 310.406 34.24C308.873 33.2933 307.653 32 306.746 30.36C305.853 28.72 305.406 26.8467 305.406 24.74C305.406 22.66 305.839 20.8067 306.706 19.18C307.586 17.54 308.793 16.2467 310.326 15.3C311.859 14.3533 313.606 13.88 315.566 13.88C317.166 13.88 318.639 14.2133 319.986 14.88C321.333 15.5467 322.399 16.4733 323.186 17.66V14.52H328.166V35H323.186V31.72C322.279 32.96 321.166 33.9267 319.846 34.62C318.539 35.3 317.113 35.64 315.566 35.64ZM316.986 31.38C318.226 31.38 319.319 31.1 320.266 30.54C321.213 29.9667 321.959 29.18 322.506 28.18C323.053 27.18 323.326 26.04 323.326 24.76C323.326 23.4667 323.053 22.3267 322.506 21.34C321.959 20.34 321.213 19.56 320.266 19C319.319 18.4267 318.226 18.14 316.986 18.14C315.759 18.14 314.666 18.4267 313.706 19C312.746 19.56 311.993 20.34 311.446 21.34C310.899 22.34 310.626 23.48 310.626 24.76C310.626 26.04 310.899 27.18 311.446 28.18C311.993 29.18 312.746 29.9667 313.706 30.54C314.666 31.1 315.759 31.38 316.986 31.38ZM335.891 35V14.52H340.871V16.98C341.578 16.0733 342.518 15.3333 343.691 14.76C344.878 14.1733 346.231 13.88 347.751 13.88C349.325 13.88 350.698 14.22 351.871 14.9C353.058 15.5667 353.978 16.5133 354.631 17.74C355.285 18.9667 355.611 20.42 355.611 22.1V35H350.631V23.14C350.631 21.4333 350.205 20.12 349.351 19.2C348.511 18.2667 347.345 17.8 345.851 17.8C344.825 17.8 343.938 18.0133 343.191 18.44C342.445 18.8533 341.871 19.4133 341.471 20.12C341.071 20.8133 340.871 21.5867 340.871 22.44V35H335.891ZM368.406 35.64C366.686 35.64 365.153 35.32 363.806 34.68C362.473 34.0267 361.386 33.0933 360.546 31.88L362.746 28.64C363.533 29.68 364.406 30.4867 365.366 31.06C366.34 31.6333 367.346 31.92 368.386 31.92C369.026 31.92 369.593 31.8067 370.086 31.58C370.58 31.34 370.973 31 371.266 30.56C371.56 30.1067 371.706 29.5733 371.706 28.96C371.706 28.32 371.54 27.82 371.206 27.46C370.873 27.1 370.373 26.7733 369.706 26.48C369.04 26.1867 368.2 25.84 367.186 25.44C366.333 25.08 365.52 24.68 364.746 24.24C363.973 23.8 363.333 23.2467 362.826 22.58C362.333 21.9 362.086 21.04 362.086 20C362.086 18.8133 362.413 17.76 363.066 16.84C363.733 15.92 364.64 15.2 365.786 14.68C366.946 14.16 368.266 13.9 369.746 13.9C370.813 13.9 371.886 14.0933 372.966 14.48C374.046 14.8533 375.126 15.4 376.206 16.12L374.406 19.26C372.846 17.9667 371.306 17.32 369.786 17.32C368.893 17.32 368.173 17.5333 367.626 17.96C367.093 18.3867 366.826 18.9333 366.826 19.6C366.826 20.1467 367.06 20.6133 367.526 21C367.993 21.3867 368.573 21.7267 369.266 22.02C369.96 22.3133 370.653 22.5933 371.346 22.86C372.44 23.26 373.4 23.6867 374.226 24.14C375.053 24.5933 375.7 25.18 376.166 25.9C376.633 26.62 376.866 27.58 376.866 28.78C376.866 30.22 376.52 31.4533 375.826 32.48C375.146 33.5067 374.173 34.2933 372.906 34.84C371.64 35.3733 370.14 35.64 368.406 35.64ZM383.721 35V18.3H381.241V14.52H383.721V8.62C383.721 6.83333 383.994 5.3 384.541 4.02C385.087 2.72667 385.867 1.73333 386.881 1.04C387.907 0.346665 389.147 -2.38419e-06 390.601 -2.38419e-06C391.507 -2.38419e-06 392.381 0.133331 393.221 0.399997C394.061 0.666665 394.787 1.04 395.401 1.52L393.661 5.02C393.034 4.60666 392.301 4.4 391.461 4.4C390.754 4.4 390.201 4.58 389.801 4.94C389.401 5.28666 389.114 5.78 388.941 6.42C388.781 7.06 388.701 7.81333 388.701 8.68V14.52H393.681V18.3H388.701V35H383.721ZM408.764 35.64C406.55 35.64 404.55 35.18 402.764 34.26C400.99 33.34 399.584 32.06 398.544 30.42C397.504 28.78 396.984 26.8933 396.984 24.76C396.984 22.6133 397.504 20.7267 398.544 19.1C399.584 17.46 400.99 16.18 402.764 15.26C404.537 14.34 406.537 13.88 408.764 13.88C410.977 13.88 412.97 14.34 414.744 15.26C416.53 16.18 417.937 17.46 418.964 19.1C420.004 20.7267 420.524 22.6133 420.524 24.76C420.524 26.8933 420.004 28.78 418.964 30.42C417.937 32.06 416.53 33.34 414.744 34.26C412.97 35.18 410.977 35.64 408.764 35.64ZM408.764 31.36C410.017 31.36 411.137 31.08 412.124 30.52C413.124 29.9467 413.91 29.1667 414.484 28.18C415.057 27.18 415.344 26.04 415.344 24.76C415.344 23.4667 415.057 22.3267 414.484 21.34C413.91 20.34 413.124 19.56 412.124 19C411.137 18.44 410.017 18.16 408.764 18.16C407.524 18.16 406.404 18.44 405.404 19C404.404 19.56 403.617 20.34 403.044 21.34C402.47 22.3267 402.184 23.4667 402.184 24.76C402.184 26.04 402.47 27.18 403.044 28.18C403.617 29.1667 404.404 29.9467 405.404 30.52C406.404 31.08 407.524 31.36 408.764 31.36ZM426.477 35V14.52H431.457V17.5C432.177 16.3267 433.077 15.4333 434.157 14.82C435.237 14.1933 436.424 13.88 437.717 13.88C438.397 13.88 439.091 13.9733 439.797 14.16C440.517 14.3333 441.131 14.5667 441.637 14.86L439.577 19.08C439.137 18.8133 438.624 18.6 438.037 18.44C437.464 18.28 436.931 18.2 436.437 18.2C435.584 18.2 434.777 18.42 434.017 18.86C433.257 19.3 432.637 19.8667 432.157 20.56C431.691 21.2533 431.457 22 431.457 22.8V35H426.477ZM445.774 35V14.52H450.754V16.98C451.701 15.9267 452.694 15.1467 453.734 14.64C454.787 14.1333 455.941 13.88 457.194 13.88C458.807 13.88 460.241 14.2467 461.494 14.98C462.761 15.7133 463.654 16.7 464.174 17.94C465.094 16.6333 466.141 15.6333 467.314 14.94C468.487 14.2333 469.847 13.88 471.394 13.88C472.861 13.88 474.161 14.1867 475.294 14.8C476.441 15.4 477.341 16.2667 477.994 17.4C478.661 18.52 478.994 19.8733 478.994 21.46V35H474.014V22.82C474.014 21.3 473.614 20.1 472.814 19.22C472.027 18.3267 470.967 17.88 469.634 17.88C468.727 17.88 467.914 18.0733 467.194 18.46C466.474 18.8467 465.907 19.36 465.494 20C465.081 20.64 464.874 21.3267 464.874 22.06V35H459.894V22.62C459.894 21.18 459.507 20.0333 458.734 19.18C457.961 18.3133 456.907 17.88 455.574 17.88C454.654 17.88 453.827 18.0733 453.094 18.46C452.374 18.8467 451.801 19.36 451.374 20C450.961 20.6267 450.754 21.3067 450.754 22.04V35H445.774ZM494.98 35.64C493.087 35.64 491.367 35.1733 489.82 34.24C488.287 33.2933 487.067 32 486.16 30.36C485.267 28.72 484.82 26.8467 484.82 24.74C484.82 22.66 485.253 20.8067 486.12 19.18C487 17.54 488.207 16.2467 489.74 15.3C491.273 14.3533 493.02 13.88 494.98 13.88C496.58 13.88 498.053 14.2133 499.4 14.88C500.747 15.5467 501.813 16.4733 502.6 17.66V14.52H507.58V35H502.6V31.72C501.693 32.96 500.58 33.9267 499.26 34.62C497.953 35.3 496.527 35.64 494.98 35.64ZM496.4 31.38C497.64 31.38 498.733 31.1 499.68 30.54C500.627 29.9667 501.373 29.18 501.92 28.18C502.467 27.18 502.74 26.04 502.74 24.76C502.74 23.4667 502.467 22.3267 501.92 21.34C501.373 20.34 500.627 19.56 499.68 19C498.733 18.4267 497.64 18.14 496.4 18.14C495.173 18.14 494.08 18.4267 493.12 19C492.16 19.56 491.407 20.34 490.86 21.34C490.313 22.34 490.04 23.48 490.04 24.76C490.04 26.04 490.313 27.18 490.86 28.18C491.407 29.18 492.16 29.9667 493.12 30.54C494.08 31.1 495.173 31.38 496.4 31.38ZM521.392 35.64C519.539 35.64 518.092 35.04 517.052 33.84C516.025 32.64 515.512 30.9533 515.512 28.78V18.3H513.012V14.52H515.512V6.86H520.492V14.52H525.212V18.3H520.492V28.44C520.492 29.3333 520.672 30.02 521.032 30.5C521.392 30.9667 521.905 31.2 522.572 31.2C523.265 31.2 523.899 30.9867 524.472 30.56L525.732 34.54C525.132 34.8867 524.445 35.1533 523.672 35.34C522.899 35.54 522.139 35.64 521.392 35.64ZM531.418 35V14.52H536.398V35H531.418ZM533.918 10.32C533.371 10.32 532.865 10.1867 532.398 9.92C531.945 9.64 531.578 9.27333 531.298 8.82C531.031 8.35333 530.898 7.84 530.898 7.28C530.898 6.73333 531.031 6.23333 531.298 5.78C531.578 5.32666 531.945 4.96666 532.398 4.7C532.865 4.42 533.371 4.28 533.918 4.28C534.478 4.28 534.978 4.42 535.418 4.7C535.871 4.96666 536.231 5.32666 536.498 5.78C536.778 6.23333 536.918 6.73333 536.918 7.28C536.918 7.84 536.778 8.35333 536.498 8.82C536.231 9.27333 535.871 9.64 535.418 9.92C534.978 10.1867 534.478 10.32 533.918 10.32ZM550.799 35L540.319 14.52H546.199L552.459 28.3L558.719 14.52H564.599L554.119 35H550.799ZM578.386 35.64C576.199 35.64 574.239 35.1667 572.506 34.22C570.786 33.2733 569.419 31.98 568.406 30.34C567.406 28.7 566.906 26.8533 566.906 24.8C566.906 23.28 567.192 21.86 567.766 20.54C568.339 19.22 569.132 18.06 570.146 17.06C571.159 16.06 572.339 15.28 573.686 14.72C575.032 14.16 576.486 13.88 578.046 13.88C580.179 13.88 582.046 14.32 583.646 15.2C585.259 16.08 586.512 17.3067 587.406 18.88C588.312 20.4533 588.766 22.2867 588.766 24.38C588.766 24.5533 588.759 24.7 588.746 24.82C588.732 24.9267 588.706 25.1133 588.666 25.38H571.986C571.986 26.62 572.266 27.7133 572.826 28.66C573.386 29.5933 574.166 30.3267 575.166 30.86C576.179 31.38 577.339 31.64 578.646 31.64C579.886 31.64 580.986 31.3933 581.946 30.9C582.919 30.3933 583.799 29.6267 584.586 28.6L588.206 30.46C587.232 32.0867 585.879 33.36 584.146 34.28C582.426 35.1867 580.506 35.64 578.386 35.64ZM572.206 22.26H583.826C583.652 21.3267 583.299 20.52 582.766 19.84C582.232 19.16 581.559 18.6333 580.746 18.26C579.932 17.8733 579.026 17.68 578.026 17.68C576.972 17.68 576.032 17.8667 575.206 18.24C574.379 18.6133 573.706 19.14 573.186 19.82C572.666 20.5 572.339 21.3133 572.206 22.26ZM40.76 80L30.28 59.52H35.98L42.26 73.26L47.98 59.52H51.36L57.06 73.26L63.34 59.52H69.04L58.58 80H55.24L49.66 66.68L44.08 80H40.76ZM73.1759 80V59.52H78.1559V80H73.1759ZM75.6759 55.32C75.1293 55.32 74.6226 55.1867 74.1559 54.92C73.7026 54.64 73.3359 54.2733 73.0559 53.82C72.7893 53.3533 72.6559 52.84 72.6559 52.28C72.6559 51.7333 72.7893 51.2333 73.0559 50.78C73.3359 50.3267 73.7026 49.9667 74.1559 49.7C74.6226 49.42 75.1293 49.28 75.6759 49.28C76.2359 49.28 76.7359 49.42 77.1759 49.7C77.6293 49.9667 77.9893 50.3267 78.2559 50.78C78.5359 51.2333 78.6759 51.7333 78.6759 52.28C78.6759 52.84 78.5359 53.3533 78.2559 53.82C77.9893 54.2733 77.6293 54.64 77.1759 54.92C76.7359 55.1867 76.2359 55.32 75.6759 55.32ZM91.5313 80.64C89.8113 80.64 88.2779 80.32 86.9313 79.68C85.5979 79.0267 84.5113 78.0933 83.6713 76.88L85.8713 73.64C86.6579 74.68 87.5313 75.4867 88.4913 76.06C89.4646 76.6333 90.4713 76.92 91.5113 76.92C92.1513 76.92 92.7179 76.8067 93.2113 76.58C93.7046 76.34 94.0979 76 94.3913 75.56C94.6846 75.1067 94.8313 74.5733 94.8313 73.96C94.8313 73.32 94.6646 72.82 94.3313 72.46C93.9979 72.1 93.4979 71.7733 92.8313 71.48C92.1646 71.1867 91.3246 70.84 90.3113 70.44C89.4579 70.08 88.6446 69.68 87.8713 69.24C87.0979 68.8 86.4579 68.2467 85.9513 67.58C85.4579 66.9 85.2113 66.04 85.2113 65C85.2113 63.8133 85.5379 62.76 86.1913 61.84C86.8579 60.92 87.7646 60.2 88.9113 59.68C90.0713 59.16 91.3913 58.9 92.8713 58.9C93.9379 58.9 95.0113 59.0933 96.0913 59.48C97.1713 59.8533 98.2513 60.4 99.3313 61.12L97.5313 64.26C95.9713 62.9667 94.4313 62.32 92.9113 62.32C92.0179 62.32 91.2979 62.5333 90.7513 62.96C90.2179 63.3867 89.9513 63.9333 89.9513 64.6C89.9513 65.1467 90.1846 65.6133 90.6513 66C91.1179 66.3867 91.6979 66.7267 92.3913 67.02C93.0846 67.3133 93.7779 67.5933 94.4713 67.86C95.5646 68.26 96.5246 68.6867 97.3513 69.14C98.1779 69.5933 98.8246 70.18 99.2913 70.9C99.7579 71.62 99.9913 72.58 99.9913 73.78C99.9913 75.22 99.6446 76.4533 98.9513 77.48C98.2713 78.5067 97.2979 79.2933 96.0313 79.84C94.7646 80.3733 93.2646 80.64 91.5313 80.64ZM114.706 80.64C112.839 80.64 111.132 80.1733 109.586 79.24C108.052 78.3067 106.832 77.02 105.926 75.38C105.032 73.74 104.586 71.8667 104.586 69.76C104.586 67.6667 105.026 65.8067 105.906 64.18C106.799 62.54 108.012 61.2467 109.546 60.3C111.092 59.3533 112.852 58.88 114.826 58.88C116.399 58.88 117.846 59.2133 119.166 59.88C120.486 60.5467 121.552 61.4733 122.366 62.66V45.58H127.346V80H122.366V76.72C121.472 77.9467 120.359 78.9067 119.026 79.6C117.706 80.2933 116.266 80.64 114.706 80.64ZM116.146 76.38C117.386 76.38 118.479 76.1 119.426 75.54C120.386 74.9667 121.139 74.1867 121.686 73.2C122.232 72.2 122.506 71.06 122.506 69.78C122.506 68.5 122.232 67.36 121.686 66.36C121.139 65.3467 120.386 64.56 119.426 64C118.479 63.4267 117.386 63.14 116.146 63.14C114.932 63.14 113.846 63.4267 112.886 64C111.926 64.56 111.172 65.3467 110.626 66.36C110.079 67.36 109.806 68.5067 109.806 69.8C109.806 71.0667 110.072 72.2 110.606 73.2C111.152 74.1867 111.906 74.9667 112.866 75.54C113.826 76.1 114.919 76.38 116.146 76.38ZM145.131 80.64C142.918 80.64 140.918 80.18 139.131 79.26C137.358 78.34 135.951 77.06 134.911 75.42C133.871 73.78 133.351 71.8933 133.351 69.76C133.351 67.6133 133.871 65.7267 134.911 64.1C135.951 62.46 137.358 61.18 139.131 60.26C140.904 59.34 142.904 58.88 145.131 58.88C147.344 58.88 149.338 59.34 151.111 60.26C152.898 61.18 154.304 62.46 155.331 64.1C156.371 65.7267 156.891 67.6133 156.891 69.76C156.891 71.8933 156.371 73.78 155.331 75.42C154.304 77.06 152.898 78.34 151.111 79.26C149.338 80.18 147.344 80.64 145.131 80.64ZM145.131 76.36C146.384 76.36 147.504 76.08 148.491 75.52C149.491 74.9467 150.278 74.1667 150.851 73.18C151.424 72.18 151.711 71.04 151.711 69.76C151.711 68.4667 151.424 67.3267 150.851 66.34C150.278 65.34 149.491 64.56 148.491 64C147.504 63.44 146.384 63.16 145.131 63.16C143.891 63.16 142.771 63.44 141.771 64C140.771 64.56 139.984 65.34 139.411 66.34C138.838 67.3267 138.551 68.4667 138.551 69.76C138.551 71.04 138.838 72.18 139.411 73.18C139.984 74.1667 140.771 74.9467 141.771 75.52C142.771 76.08 143.891 76.36 145.131 76.36ZM162.844 80V59.52H167.824V61.98C168.771 60.9267 169.764 60.1467 170.804 59.64C171.858 59.1333 173.011 58.88 174.264 58.88C175.878 58.88 177.311 59.2467 178.564 59.98C179.831 60.7133 180.724 61.7 181.244 62.94C182.164 61.6333 183.211 60.6333 184.384 59.94C185.558 59.2333 186.918 58.88 188.464 58.88C189.931 58.88 191.231 59.1867 192.364 59.8C193.511 60.4 194.411 61.2667 195.064 62.4C195.731 63.52 196.064 64.8733 196.064 66.46V80H191.084V67.82C191.084 66.3 190.684 65.1 189.884 64.22C189.098 63.3267 188.038 62.88 186.704 62.88C185.798 62.88 184.984 63.0733 184.264 63.46C183.544 63.8467 182.978 64.36 182.564 65C182.151 65.64 181.944 66.3267 181.944 67.06V80H176.964V67.62C176.964 66.18 176.578 65.0333 175.804 64.18C175.031 63.3133 173.978 62.88 172.644 62.88C171.724 62.88 170.898 63.0733 170.164 63.46C169.444 63.8467 168.871 64.36 168.444 65C168.031 65.6267 167.824 66.3067 167.824 67.04V80H162.844ZM213.996 80V59.52H218.976V80H213.996ZM216.496 55.32C215.95 55.32 215.443 55.1867 214.976 54.92C214.523 54.64 214.156 54.2733 213.876 53.82C213.61 53.3533 213.476 52.84 213.476 52.28C213.476 51.7333 213.61 51.2333 213.876 50.78C214.156 50.3267 214.523 49.9667 214.976 49.7C215.443 49.42 215.95 49.28 216.496 49.28C217.056 49.28 217.556 49.42 217.996 49.7C218.45 49.9667 218.81 50.3267 219.076 50.78C219.356 51.2333 219.496 51.7333 219.496 52.28C219.496 52.84 219.356 53.3533 219.076 53.82C218.81 54.2733 218.45 54.64 217.996 54.92C217.556 55.1867 217.056 55.32 216.496 55.32ZM226.712 80V59.52H231.692V61.98C232.398 61.0733 233.338 60.3333 234.512 59.76C235.698 59.1733 237.052 58.88 238.572 58.88C240.145 58.88 241.518 59.22 242.692 59.9C243.878 60.5667 244.798 61.5133 245.452 62.74C246.105 63.9667 246.432 65.42 246.432 67.1V80H241.452V68.14C241.452 66.4333 241.025 65.12 240.172 64.2C239.332 63.2667 238.165 62.8 236.672 62.8C235.645 62.8 234.758 63.0133 234.012 63.44C233.265 63.8533 232.692 64.4133 232.292 65.12C231.892 65.8133 231.692 66.5867 231.692 67.44V80H226.712ZM259.908 80.64C258.054 80.64 256.608 80.04 255.567 78.84C254.541 77.64 254.028 75.9533 254.028 73.78V63.3H251.528V59.52H254.028V51.86H259.008V59.52H263.728V63.3H259.008V73.44C259.008 74.3333 259.188 75.02 259.548 75.5C259.908 75.9667 260.421 76.2 261.088 76.2C261.781 76.2 262.414 75.9867 262.988 75.56L264.248 79.54C263.648 79.8867 262.961 80.1533 262.188 80.34C261.414 80.54 260.654 80.64 259.908 80.64ZM280.014 80.64C277.8 80.64 275.8 80.18 274.014 79.26C272.24 78.34 270.834 77.06 269.794 75.42C268.754 73.78 268.234 71.8933 268.234 69.76C268.234 67.6133 268.754 65.7267 269.794 64.1C270.834 62.46 272.24 61.18 274.014 60.26C275.787 59.34 277.787 58.88 280.014 58.88C282.227 58.88 284.22 59.34 285.994 60.26C287.78 61.18 289.187 62.46 290.214 64.1C291.254 65.7267 291.774 67.6133 291.774 69.76C291.774 71.8933 291.254 73.78 290.214 75.42C289.187 77.06 287.78 78.34 285.994 79.26C284.22 80.18 282.227 80.64 280.014 80.64ZM280.014 76.36C281.267 76.36 282.387 76.08 283.374 75.52C284.374 74.9467 285.16 74.1667 285.734 73.18C286.307 72.18 286.594 71.04 286.594 69.76C286.594 68.4667 286.307 67.3267 285.734 66.34C285.16 65.34 284.374 64.56 283.374 64C282.387 63.44 281.267 63.16 280.014 63.16C278.774 63.16 277.654 63.44 276.654 64C275.654 64.56 274.867 65.34 274.294 66.34C273.72 67.3267 273.434 68.4667 273.434 69.76C273.434 71.04 273.72 72.18 274.294 73.18C274.867 74.1667 275.654 74.9467 276.654 75.52C277.654 76.08 278.774 76.36 280.014 76.36ZM309.351 80V47H319.631C321.778 47 323.665 47.3733 325.291 48.12C326.931 48.8667 328.211 49.96 329.131 51.4C330.051 52.84 330.511 54.62 330.511 56.74C330.511 58.8333 330.051 60.64 329.131 62.16C328.211 63.6667 326.931 64.8333 325.291 65.66C323.665 66.4733 321.778 66.88 319.631 66.88H314.591V80H309.351ZM314.591 62.64H318.091C319.411 62.64 320.591 62.4267 321.631 62C322.685 61.5733 323.518 60.94 324.131 60.1C324.745 59.2467 325.051 58.1733 325.051 56.88C325.051 55.5867 324.745 54.52 324.131 53.68C323.518 52.84 322.685 52.22 321.631 51.82C320.591 51.4067 319.411 51.2 318.091 51.2H314.591V62.64ZM344.506 80.64C342.293 80.64 340.293 80.18 338.506 79.26C336.733 78.34 335.326 77.06 334.286 75.42C333.246 73.78 332.726 71.8933 332.726 69.76C332.726 67.6133 333.246 65.7267 334.286 64.1C335.326 62.46 336.733 61.18 338.506 60.26C340.279 59.34 342.279 58.88 344.506 58.88C346.719 58.88 348.713 59.34 350.486 60.26C352.273 61.18 353.679 62.46 354.706 64.1C355.746 65.7267 356.266 67.6133 356.266 69.76C356.266 71.8933 355.746 73.78 354.706 75.42C353.679 77.06 352.273 78.34 350.486 79.26C348.713 80.18 346.719 80.64 344.506 80.64ZM344.506 76.36C345.759 76.36 346.879 76.08 347.866 75.52C348.866 74.9467 349.653 74.1667 350.226 73.18C350.799 72.18 351.086 71.04 351.086 69.76C351.086 68.4667 350.799 67.3267 350.226 66.34C349.653 65.34 348.866 64.56 347.866 64C346.879 63.44 345.759 63.16 344.506 63.16C343.266 63.16 342.146 63.44 341.146 64C340.146 64.56 339.359 65.34 338.786 66.34C338.213 67.3267 337.926 68.4667 337.926 69.76C337.926 71.04 338.213 72.18 338.786 73.18C339.359 74.1667 340.146 74.9467 341.146 75.52C342.146 76.08 343.266 76.36 344.506 76.36ZM367.781 80.64C366.061 80.64 364.528 80.32 363.181 79.68C361.848 79.0267 360.761 78.0933 359.921 76.88L362.121 73.64C362.908 74.68 363.781 75.4867 364.741 76.06C365.715 76.6333 366.721 76.92 367.761 76.92C368.401 76.92 368.968 76.8067 369.461 76.58C369.955 76.34 370.348 76 370.641 75.56C370.935 75.1067 371.081 74.5733 371.081 73.96C371.081 73.32 370.915 72.82 370.581 72.46C370.248 72.1 369.748 71.7733 369.081 71.48C368.415 71.1867 367.575 70.84 366.561 70.44C365.708 70.08 364.895 69.68 364.121 69.24C363.348 68.8 362.708 68.2467 362.201 67.58C361.708 66.9 361.461 66.04 361.461 65C361.461 63.8133 361.788 62.76 362.441 61.84C363.108 60.92 364.015 60.2 365.161 59.68C366.321 59.16 367.641 58.9 369.121 58.9C370.188 58.9 371.261 59.0933 372.341 59.48C373.421 59.8533 374.501 60.4 375.581 61.12L373.781 64.26C372.221 62.9667 370.681 62.32 369.161 62.32C368.268 62.32 367.548 62.5333 367.001 62.96C366.468 63.3867 366.201 63.9333 366.201 64.6C366.201 65.1467 366.435 65.6133 366.901 66C367.368 66.3867 367.948 66.7267 368.641 67.02C369.335 67.3133 370.028 67.5933 370.721 67.86C371.815 68.26 372.775 68.6867 373.601 69.14C374.428 69.5933 375.075 70.18 375.541 70.9C376.008 71.62 376.241 72.58 376.241 73.78C376.241 75.22 375.895 76.4533 375.201 77.48C374.521 78.5067 373.548 79.2933 372.281 79.84C371.015 80.3733 369.515 80.64 367.781 80.64ZM382.356 80V59.52H387.336V80H382.356ZM384.856 55.32C384.309 55.32 383.802 55.1867 383.336 54.92C382.882 54.64 382.516 54.2733 382.236 53.82C381.969 53.3533 381.836 52.84 381.836 52.28C381.836 51.7333 381.969 51.2333 382.236 50.78C382.516 50.3267 382.882 49.9667 383.336 49.7C383.802 49.42 384.309 49.28 384.856 49.28C385.416 49.28 385.916 49.42 386.356 49.7C386.809 49.9667 387.169 50.3267 387.436 50.78C387.716 51.2333 387.856 51.7333 387.856 52.28C387.856 52.84 387.716 53.3533 387.436 53.82C387.169 54.2733 386.809 54.64 386.356 54.92C385.916 55.1867 385.416 55.32 384.856 55.32ZM401.431 80.64C399.578 80.64 398.131 80.04 397.091 78.84C396.064 77.64 395.551 75.9533 395.551 73.78V63.3H393.051V59.52H395.551V51.86H400.531V59.52H405.251V63.3H400.531V73.44C400.531 74.3333 400.711 75.02 401.071 75.5C401.431 75.9667 401.944 76.2 402.611 76.2C403.304 76.2 403.938 75.9867 404.511 75.56L405.771 79.54C405.171 79.8867 404.484 80.1533 403.711 80.34C402.938 80.54 402.178 80.64 401.431 80.64ZM411.457 80V59.52H416.437V80H411.457ZM413.957 55.32C413.411 55.32 412.904 55.1867 412.437 54.92C411.984 54.64 411.617 54.2733 411.337 53.82C411.071 53.3533 410.937 52.84 410.937 52.28C410.937 51.7333 411.071 51.2333 411.337 50.78C411.617 50.3267 411.984 49.9667 412.437 49.7C412.904 49.42 413.411 49.28 413.957 49.28C414.517 49.28 415.017 49.42 415.457 49.7C415.911 49.9667 416.271 50.3267 416.537 50.78C416.817 51.2333 416.957 51.7333 416.957 52.28C416.957 52.84 416.817 53.3533 416.537 53.82C416.271 54.2733 415.911 54.64 415.457 54.92C415.017 55.1867 414.517 55.32 413.957 55.32ZM430.838 80L420.358 59.52H426.238L432.498 73.3L438.758 59.52H444.638L434.158 80H430.838ZM458.425 80.64C456.238 80.64 454.278 80.1667 452.545 79.22C450.825 78.2733 449.458 76.98 448.445 75.34C447.445 73.7 446.945 71.8533 446.945 69.8C446.945 68.28 447.231 66.86 447.805 65.54C448.378 64.22 449.171 63.06 450.185 62.06C451.198 61.06 452.378 60.28 453.725 59.72C455.071 59.16 456.525 58.88 458.085 58.88C460.218 58.88 462.085 59.32 463.685 60.2C465.298 61.08 466.551 62.3067 467.445 63.88C468.351 65.4533 468.805 67.2867 468.805 69.38C468.805 69.5533 468.798 69.7 468.785 69.82C468.771 69.9267 468.745 70.1133 468.705 70.38H452.025C452.025 71.62 452.305 72.7133 452.865 73.66C453.425 74.5933 454.205 75.3267 455.205 75.86C456.218 76.38 457.378 76.64 458.685 76.64C459.925 76.64 461.025 76.3933 461.985 75.9C462.958 75.3933 463.838 74.6267 464.625 73.6L468.245 75.46C467.271 77.0867 465.918 78.36 464.185 79.28C462.465 80.1867 460.545 80.64 458.425 80.64ZM452.245 67.26H463.865C463.691 66.3267 463.338 65.52 462.805 64.84C462.271 64.16 461.598 63.6333 460.785 63.26C459.971 62.8733 459.065 62.68 458.065 62.68C457.011 62.68 456.071 62.8667 455.245 63.24C454.418 63.6133 453.745 64.14 453.225 64.82C452.705 65.5 452.378 66.3133 452.245 67.26ZM482.603 80L495.743 47H500.603L513.763 80H508.123L504.883 71.4H491.483L488.223 80H482.603ZM493.263 66.8H503.103L498.163 54.04L493.263 66.8ZM531.245 80.64C527.231 80.64 524.205 79.6 522.165 77.52C520.125 75.44 519.105 72.3533 519.105 68.26V47H524.325V66.84C524.325 69.84 524.878 72.0333 525.985 73.42C527.105 74.8067 528.858 75.5 531.245 75.5C533.631 75.5 535.378 74.8067 536.485 73.42C537.605 72.0333 538.165 69.84 538.165 66.84V47H543.405V68.26C543.405 72.3533 542.385 75.44 540.345 77.52C538.305 79.6 535.271 80.64 531.245 80.64ZM552.515 80V47H562.795C565.009 47 566.929 47.3867 568.555 48.16C570.195 48.9333 571.455 50.0467 572.335 51.5C573.229 52.9533 573.675 54.7 573.675 56.74C573.675 58.4333 573.355 59.9533 572.715 61.3C572.089 62.6333 571.182 63.74 569.995 64.62C568.822 65.5 567.409 66.1133 565.755 66.46L576.615 80H569.975L560.095 67.04H557.755V80H552.515ZM557.755 62.64H561.255C562.709 62.64 563.955 62.4133 564.995 61.96C566.035 61.4933 566.829 60.8333 567.375 59.98C567.935 59.1133 568.215 58.08 568.215 56.88C568.215 55.08 567.602 53.6867 566.375 52.7C565.162 51.7 563.455 51.2 561.255 51.2H557.755V62.64ZM578.11 80L591.25 47H596.11L609.27 80H603.63L600.39 71.4H586.99L583.73 80H578.11ZM588.77 66.8H598.61L593.67 54.04L588.77 66.8ZM31.04 125L44.18 92H49.04L62.2 125H56.56L53.32 116.4H39.92L36.66 125H31.04ZM41.7 111.8H51.54L46.6 99.04L41.7 111.8ZM72.7422 125.64C71.0222 125.64 69.4889 125.32 68.1422 124.68C66.8089 124.027 65.7222 123.093 64.8822 121.88L67.0822 118.64C67.8689 119.68 68.7422 120.487 69.7022 121.06C70.6755 121.633 71.6822 121.92 72.7222 121.92C73.3622 121.92 73.9289 121.807 74.4222 121.58C74.9155 121.34 75.3089 121 75.6022 120.56C75.8955 120.107 76.0422 119.573 76.0422 118.96C76.0422 118.32 75.8755 117.82 75.5422 117.46C75.2089 117.1 74.7089 116.773 74.0422 116.48C73.3755 116.187 72.5355 115.84 71.5222 115.44C70.6689 115.08 69.8555 114.68 69.0822 114.24C68.3089 113.8 67.6689 113.247 67.1622 112.58C66.6689 111.9 66.4222 111.04 66.4222 110C66.4222 108.813 66.7489 107.76 67.4022 106.84C68.0689 105.92 68.9755 105.2 70.1222 104.68C71.2822 104.16 72.6022 103.9 74.0822 103.9C75.1489 103.9 76.2222 104.093 77.3022 104.48C78.3822 104.853 79.4622 105.4 80.5422 106.12L78.7422 109.26C77.1822 107.967 75.6422 107.32 74.1222 107.32C73.2289 107.32 72.5089 107.533 71.9622 107.96C71.4289 108.387 71.1622 108.933 71.1622 109.6C71.1622 110.147 71.3955 110.613 71.8622 111C72.3289 111.387 72.9089 111.727 73.6022 112.02C74.2955 112.313 74.9889 112.593 75.6822 112.86C76.7755 113.26 77.7355 113.687 78.5622 114.14C79.3889 114.593 80.0355 115.18 80.5022 115.9C80.9689 116.62 81.2022 117.58 81.2022 118.78C81.2022 120.22 80.8555 121.453 80.1622 122.48C79.4822 123.507 78.5089 124.293 77.2422 124.84C75.9755 125.373 74.4755 125.64 72.7422 125.64ZM93.345 125.64C91.4917 125.64 90.045 125.04 89.005 123.84C87.9783 122.64 87.465 120.953 87.465 118.78V108.3H84.965V104.52H87.465V96.86H92.445V104.52H97.165V108.3H92.445V118.44C92.445 119.333 92.625 120.02 92.985 120.5C93.345 120.967 93.8583 121.2 94.525 121.2C95.2183 121.2 95.8517 120.987 96.425 120.56L97.685 124.54C97.085 124.887 96.3983 125.153 95.625 125.34C94.8517 125.54 94.0917 125.64 93.345 125.64ZM103.391 125V104.52H108.371V107.5C109.091 106.327 109.991 105.433 111.071 104.82C112.151 104.193 113.338 103.88 114.631 103.88C115.311 103.88 116.005 103.973 116.711 104.16C117.431 104.333 118.045 104.567 118.551 104.86L116.491 109.08C116.051 108.813 115.538 108.6 114.951 108.44C114.378 108.28 113.845 108.2 113.351 108.2C112.498 108.2 111.691 108.42 110.931 108.86C110.171 109.3 109.551 109.867 109.071 110.56C108.605 111.253 108.371 112 108.371 112.8V125H103.391ZM132.514 125.64C130.3 125.64 128.3 125.18 126.514 124.26C124.74 123.34 123.334 122.06 122.294 120.42C121.254 118.78 120.734 116.893 120.734 114.76C120.734 112.613 121.254 110.727 122.294 109.1C123.334 107.46 124.74 106.18 126.514 105.26C128.287 104.34 130.287 103.88 132.514 103.88C134.727 103.88 136.72 104.34 138.494 105.26C140.28 106.18 141.687 107.46 142.714 109.1C143.754 110.727 144.274 112.613 144.274 114.76C144.274 116.893 143.754 118.78 142.714 120.42C141.687 122.06 140.28 123.34 138.494 124.26C136.72 125.18 134.727 125.64 132.514 125.64ZM132.514 121.36C133.767 121.36 134.887 121.08 135.874 120.52C136.874 119.947 137.66 119.167 138.234 118.18C138.807 117.18 139.094 116.04 139.094 114.76C139.094 113.467 138.807 112.327 138.234 111.34C137.66 110.34 136.874 109.56 135.874 109C134.887 108.44 133.767 108.16 132.514 108.16C131.274 108.16 130.154 108.44 129.154 109C128.154 109.56 127.367 110.34 126.794 111.34C126.22 112.327 125.934 113.467 125.934 114.76C125.934 116.04 126.22 117.18 126.794 118.18C127.367 119.167 128.154 119.947 129.154 120.52C130.154 121.08 131.274 121.36 132.514 121.36ZM150.227 125V90.6H155.207V125H150.227ZM172.983 125.64C170.769 125.64 168.769 125.18 166.983 124.26C165.209 123.34 163.803 122.06 162.763 120.42C161.723 118.78 161.203 116.893 161.203 114.76C161.203 112.613 161.723 110.727 162.763 109.1C163.803 107.46 165.209 106.18 166.983 105.26C168.756 104.34 170.756 103.88 172.983 103.88C175.196 103.88 177.189 104.34 178.963 105.26C180.749 106.18 182.156 107.46 183.183 109.1C184.223 110.727 184.743 112.613 184.743 114.76C184.743 116.893 184.223 118.78 183.183 120.42C182.156 122.06 180.749 123.34 178.963 124.26C177.189 125.18 175.196 125.64 172.983 125.64ZM172.983 121.36C174.236 121.36 175.356 121.08 176.343 120.52C177.343 119.947 178.129 119.167 178.703 118.18C179.276 117.18 179.563 116.04 179.563 114.76C179.563 113.467 179.276 112.327 178.703 111.34C178.129 110.34 177.343 109.56 176.343 109C175.356 108.44 174.236 108.16 172.983 108.16C171.743 108.16 170.623 108.44 169.622 109C168.623 109.56 167.836 110.34 167.263 111.34C166.689 112.327 166.403 113.467 166.403 114.76C166.403 116.04 166.689 117.18 167.263 118.18C167.836 119.167 168.623 119.947 169.622 120.52C170.623 121.08 171.743 121.36 172.983 121.36ZM200.334 136C197.641 136 195.367 135.493 193.514 134.48C191.674 133.467 190.327 131.987 189.474 130.04L193.554 128.08C194.141 129.187 195.047 130.067 196.274 130.72C197.501 131.387 198.854 131.72 200.334 131.72C201.641 131.72 202.794 131.46 203.794 130.94C204.794 130.42 205.581 129.68 206.154 128.72C206.727 127.773 207.014 126.653 207.014 125.36V121.72C206.134 122.947 205.027 123.907 203.694 124.6C202.374 125.293 200.927 125.64 199.354 125.64C197.487 125.64 195.787 125.173 194.254 124.24C192.721 123.307 191.501 122.02 190.594 120.38C189.687 118.74 189.234 116.867 189.234 114.76C189.234 112.667 189.674 110.807 190.554 109.18C191.447 107.54 192.661 106.247 194.194 105.3C195.741 104.353 197.501 103.88 199.474 103.88C201.047 103.88 202.494 104.213 203.814 104.88C205.147 105.547 206.214 106.473 207.014 107.66V104.52H211.994V125.56C211.994 127.667 211.554 129.5 210.674 131.06C209.807 132.633 208.507 133.847 206.774 134.7C205.041 135.567 202.894 136 200.334 136ZM200.774 121.38C202.027 121.38 203.134 121.1 204.094 120.54C205.054 119.967 205.807 119.187 206.354 118.2C206.901 117.2 207.174 116.06 207.174 114.78C207.174 113.5 206.894 112.36 206.334 111.36C205.787 110.347 205.034 109.56 204.074 109C203.127 108.427 202.041 108.14 200.814 108.14C199.587 108.14 198.494 108.427 197.534 109C196.574 109.56 195.821 110.347 195.274 111.36C194.727 112.36 194.454 113.5 194.454 114.78C194.454 116.06 194.721 117.2 195.254 118.2C195.801 119.187 196.547 119.967 197.494 120.54C198.454 121.1 199.547 121.38 200.774 121.38ZM219.779 135.4L225.839 123.18L216.099 104.52H221.779L228.719 118.32L234.859 104.52H240.539L225.459 135.4H219.779ZM265.404 125.64C263.191 125.64 261.191 125.18 259.404 124.26C257.631 123.34 256.224 122.06 255.184 120.42C254.144 118.78 253.624 116.893 253.624 114.76C253.624 112.613 254.144 110.727 255.184 109.1C256.224 107.46 257.631 106.18 259.404 105.26C261.178 104.34 263.178 103.88 265.404 103.88C267.618 103.88 269.611 104.34 271.384 105.26C273.171 106.18 274.578 107.46 275.604 109.1C276.644 110.727 277.164 112.613 277.164 114.76C277.164 116.893 276.644 118.78 275.604 120.42C274.578 122.06 273.171 123.34 271.384 124.26C269.611 125.18 267.618 125.64 265.404 125.64ZM265.404 121.36C266.658 121.36 267.778 121.08 268.764 120.52C269.764 119.947 270.551 119.167 271.124 118.18C271.698 117.18 271.984 116.04 271.984 114.76C271.984 113.467 271.698 112.327 271.124 111.34C270.551 110.34 269.764 109.56 268.764 109C267.778 108.44 266.658 108.16 265.404 108.16C264.164 108.16 263.044 108.44 262.044 109C261.044 109.56 260.258 110.34 259.684 111.34C259.111 112.327 258.824 113.467 258.824 114.76C258.824 116.04 259.111 117.18 259.684 118.18C260.258 119.167 261.044 119.947 262.044 120.52C263.044 121.08 264.164 121.36 265.404 121.36ZM283.976 125V108.3H281.496V104.52H283.976V98.62C283.976 96.8067 284.249 95.26 284.796 93.98C285.356 92.6867 286.149 91.7 287.176 91.02C288.203 90.34 289.423 90 290.836 90C291.889 90 292.809 90.1533 293.596 90.46C294.383 90.7533 295.009 91.06 295.476 91.38L293.716 94.9C293.489 94.7667 293.196 94.6533 292.836 94.56C292.489 94.4533 292.103 94.4 291.676 94.4C290.676 94.4 289.969 94.7333 289.556 95.4C289.156 96.0533 288.956 97.1467 288.956 98.68V104.52H295.876V98.62C295.876 96.8067 296.149 95.26 296.696 93.98C297.256 92.6867 298.043 91.7 299.056 91.02C300.083 90.34 301.309 90 302.736 90C303.883 90 304.856 90.1667 305.656 90.5C306.469 90.8333 307.103 91.1733 307.556 91.52L305.816 95.02C305.576 94.86 305.263 94.72 304.876 94.6C304.503 94.4667 304.063 94.4 303.556 94.4C302.569 94.4 301.869 94.7333 301.456 95.4C301.056 96.0533 300.856 97.1467 300.856 98.68V104.52H305.836V108.3H300.856V125H295.876V108.3H288.956V125H283.976ZM322.331 125.64C320.144 125.64 318.184 125.167 316.451 124.22C314.731 123.273 313.364 121.98 312.351 120.34C311.351 118.7 310.851 116.853 310.851 114.8C310.851 113.28 311.138 111.86 311.711 110.54C312.284 109.22 313.078 108.06 314.091 107.06C315.104 106.06 316.284 105.28 317.631 104.72C318.978 104.16 320.431 103.88 321.991 103.88C324.124 103.88 325.991 104.32 327.591 105.2C329.204 106.08 330.458 107.307 331.351 108.88C332.258 110.453 332.711 112.287 332.711 114.38C332.711 114.553 332.704 114.7 332.691 114.82C332.678 114.927 332.651 115.113 332.611 115.38H315.931C315.931 116.62 316.211 117.713 316.771 118.66C317.331 119.593 318.111 120.327 319.111 120.86C320.124 121.38 321.284 121.64 322.591 121.64C323.831 121.64 324.931 121.393 325.891 120.9C326.864 120.393 327.744 119.627 328.531 118.6L332.151 120.46C331.178 122.087 329.824 123.36 328.091 124.28C326.371 125.187 324.451 125.64 322.331 125.64ZM316.151 112.26H327.771C327.598 111.327 327.244 110.52 326.711 109.84C326.178 109.16 325.504 108.633 324.691 108.26C323.878 107.873 322.971 107.68 321.971 107.68C320.918 107.68 319.978 107.867 319.151 108.24C318.324 108.613 317.651 109.14 317.131 109.82C316.611 110.5 316.284 111.313 316.151 112.26ZM338.665 125V104.52H343.645V107.5C344.365 106.327 345.265 105.433 346.345 104.82C347.425 104.193 348.611 103.88 349.905 103.88C350.585 103.88 351.278 103.973 351.985 104.16C352.705 104.333 353.318 104.567 353.825 104.86L351.765 109.08C351.325 108.813 350.811 108.6 350.225 108.44C349.651 108.28 349.118 108.2 348.625 108.2C347.771 108.2 346.965 108.42 346.205 108.86C345.445 109.3 344.825 109.867 344.345 110.56C343.878 111.253 343.645 112 343.645 112.8V125H338.665ZM363.289 125.64C361.569 125.64 360.036 125.32 358.689 124.68C357.356 124.027 356.269 123.093 355.429 121.88L357.629 118.64C358.416 119.68 359.289 120.487 360.249 121.06C361.222 121.633 362.229 121.92 363.269 121.92C363.909 121.92 364.476 121.807 364.969 121.58C365.462 121.34 365.856 121 366.149 120.56C366.442 120.107 366.589 119.573 366.589 118.96C366.589 118.32 366.422 117.82 366.089 117.46C365.756 117.1 365.256 116.773 364.589 116.48C363.922 116.187 363.082 115.84 362.069 115.44C361.216 115.08 360.402 114.68 359.629 114.24C358.856 113.8 358.216 113.247 357.709 112.58C357.216 111.9 356.969 111.04 356.969 110C356.969 108.813 357.296 107.76 357.949 106.84C358.616 105.92 359.522 105.2 360.669 104.68C361.829 104.16 363.149 103.9 364.629 103.9C365.696 103.9 366.769 104.093 367.849 104.48C368.929 104.853 370.009 105.4 371.089 106.12L369.289 109.26C367.729 107.967 366.189 107.32 364.669 107.32C363.776 107.32 363.056 107.533 362.509 107.96C361.976 108.387 361.709 108.933 361.709 109.6C361.709 110.147 361.942 110.613 362.409 111C362.876 111.387 363.456 111.727 364.149 112.02C364.842 112.313 365.536 112.593 366.229 112.86C367.322 113.26 368.282 113.687 369.109 114.14C369.936 114.593 370.582 115.18 371.049 115.9C371.516 116.62 371.749 117.58 371.749 118.78C371.749 120.22 371.402 121.453 370.709 122.48C370.029 123.507 369.056 124.293 367.789 124.84C366.522 125.373 365.022 125.64 363.289 125.64ZM389.189 125V108.3H386.709V104.52H389.189V98.62C389.189 96.8333 389.463 95.3 390.009 94.02C390.556 92.7267 391.336 91.7333 392.349 91.04C393.376 90.3467 394.616 90 396.069 90C396.976 90 397.849 90.1333 398.689 90.4C399.529 90.6667 400.256 91.04 400.869 91.52L399.129 95.02C398.503 94.6067 397.769 94.4 396.929 94.4C396.223 94.4 395.669 94.58 395.269 94.94C394.869 95.2867 394.583 95.78 394.409 96.42C394.249 97.06 394.169 97.8133 394.169 98.68V104.52H399.149V108.3H394.169V125H389.189ZM414.233 125.64C412.019 125.64 410.019 125.18 408.233 124.26C406.459 123.34 405.053 122.06 404.013 120.42C402.973 118.78 402.453 116.893 402.453 114.76C402.453 112.613 402.973 110.727 404.013 109.1C405.053 107.46 406.459 106.18 408.233 105.26C410.006 104.34 412.006 103.88 414.233 103.88C416.446 103.88 418.439 104.34 420.213 105.26C421.999 106.18 423.406 107.46 424.433 109.1C425.473 110.727 425.993 112.613 425.993 114.76C425.993 116.893 425.473 118.78 424.433 120.42C423.406 122.06 421.999 123.34 420.213 124.26C418.439 125.18 416.446 125.64 414.233 125.64ZM414.233 121.36C415.486 121.36 416.606 121.08 417.593 120.52C418.593 119.947 419.379 119.167 419.953 118.18C420.526 117.18 420.813 116.04 420.813 114.76C420.813 113.467 420.526 112.327 419.953 111.34C419.379 110.34 418.593 109.56 417.593 109C416.606 108.44 415.486 108.16 414.233 108.16C412.993 108.16 411.873 108.44 410.872 109C409.873 109.56 409.086 110.34 408.513 111.34C407.939 112.327 407.653 113.467 407.653 114.76C407.653 116.04 407.939 117.18 408.513 118.18C409.086 119.167 409.873 119.947 410.872 120.52C411.873 121.08 412.993 121.36 414.233 121.36ZM431.946 125V104.52H436.926V107.5C437.646 106.327 438.546 105.433 439.626 104.82C440.706 104.193 441.893 103.88 443.186 103.88C443.866 103.88 444.559 103.973 445.266 104.16C445.986 104.333 446.599 104.567 447.106 104.86L445.046 109.08C444.606 108.813 444.093 108.6 443.506 108.44C442.933 108.28 442.399 108.2 441.906 108.2C441.053 108.2 440.246 108.42 439.486 108.86C438.726 109.3 438.106 109.867 437.626 110.56C437.159 111.253 436.926 112 436.926 112.8V125H431.946ZM461.654 135.4L467.714 123.18L457.974 104.52H463.654L470.594 118.32L476.734 104.52H482.414L467.334 135.4H461.654ZM496.576 125.64C494.363 125.64 492.363 125.18 490.576 124.26C488.803 123.34 487.396 122.06 486.356 120.42C485.316 118.78 484.796 116.893 484.796 114.76C484.796 112.613 485.316 110.727 486.356 109.1C487.396 107.46 488.803 106.18 490.576 105.26C492.35 104.34 494.35 103.88 496.576 103.88C498.79 103.88 500.783 104.34 502.556 105.26C504.343 106.18 505.75 107.46 506.776 109.1C507.816 110.727 508.336 112.613 508.336 114.76C508.336 116.893 507.816 118.78 506.776 120.42C505.75 122.06 504.343 123.34 502.556 124.26C500.783 125.18 498.79 125.64 496.576 125.64ZM496.576 121.36C497.83 121.36 498.95 121.08 499.936 120.52C500.936 119.947 501.723 119.167 502.296 118.18C502.87 117.18 503.156 116.04 503.156 114.76C503.156 113.467 502.87 112.327 502.296 111.34C501.723 110.34 500.936 109.56 499.936 109C498.95 108.44 497.83 108.16 496.576 108.16C495.336 108.16 494.216 108.44 493.216 109C492.216 109.56 491.43 110.34 490.856 111.34C490.283 112.327 489.996 113.467 489.996 114.76C489.996 116.04 490.283 117.18 490.856 118.18C491.43 119.167 492.216 119.947 493.216 120.52C494.216 121.08 495.336 121.36 496.576 121.36ZM523.788 125.64C520.268 125.64 517.741 124.92 516.208 123.48C514.674 122.027 513.908 119.633 513.908 116.3V104.52H518.888V115.18C518.888 117.487 519.254 119.127 519.988 120.1C520.734 121.073 522.001 121.56 523.788 121.56C525.574 121.56 526.834 121.073 527.568 120.1C528.314 119.127 528.688 117.487 528.688 115.18V104.52H533.668V116.3C533.668 119.633 532.901 122.027 531.368 123.48C529.834 124.92 527.308 125.64 523.788 125.64ZM540.93 125V104.52H545.91V107.5C546.63 106.327 547.53 105.433 548.61 104.82C549.69 104.193 550.877 103.88 552.17 103.88C552.85 103.88 553.544 103.973 554.25 104.16C554.97 104.333 555.584 104.567 556.09 104.86L554.03 109.08C553.59 108.813 553.077 108.6 552.49 108.44C551.917 108.28 551.384 108.2 550.89 108.2C550.037 108.2 549.23 108.42 548.47 108.86C547.71 109.3 547.09 109.867 546.61 110.56C546.144 111.253 545.91 112 545.91 112.8V125H540.93ZM569.293 136C568.466 136 567.626 135.9 566.773 135.7C565.92 135.5 565.226 135.22 564.693 134.86L566.213 130.84C566.826 131.307 567.52 131.54 568.293 131.54C569.986 131.54 570.833 130.373 570.833 128.04V104.52H575.813V128.84C575.813 131.093 575.24 132.847 574.093 134.1C572.96 135.367 571.36 136 569.293 136ZM573.313 100.3C572.766 100.3 572.26 100.167 571.793 99.9C571.34 99.62 570.973 99.2533 570.693 98.8C570.426 98.3333 570.293 97.82 570.293 97.26C570.293 96.7133 570.426 96.2133 570.693 95.76C570.973 95.2933 571.34 94.9267 571.793 94.66C572.26 94.3933 572.766 94.26 573.313 94.26C573.873 94.26 574.38 94.3933 574.833 94.66C575.286 94.9267 575.646 95.2933 575.913 95.76C576.193 96.2133 576.333 96.7133 576.333 97.26C576.333 97.8067 576.193 98.3133 575.913 98.78C575.646 99.2467 575.28 99.62 574.813 99.9C574.36 100.167 573.86 100.3 573.313 100.3ZM593.608 125.64C591.394 125.64 589.394 125.18 587.608 124.26C585.834 123.34 584.428 122.06 583.388 120.42C582.348 118.78 581.828 116.893 581.828 114.76C581.828 112.613 582.348 110.727 583.388 109.1C584.428 107.46 585.834 106.18 587.608 105.26C589.381 104.34 591.381 103.88 593.608 103.88C595.821 103.88 597.814 104.34 599.588 105.26C601.374 106.18 602.781 107.46 603.808 109.1C604.848 110.727 605.368 112.613 605.368 114.76C605.368 116.893 604.848 118.78 603.808 120.42C602.781 122.06 601.374 123.34 599.588 124.26C597.814 125.18 595.821 125.64 593.608 125.64ZM593.608 121.36C594.861 121.36 595.981 121.08 596.968 120.52C597.968 119.947 598.754 119.167 599.328 118.18C599.901 117.18 600.188 116.04 600.188 114.76C600.188 113.467 599.901 112.327 599.328 111.34C598.754 110.34 597.968 109.56 596.968 109C595.981 108.44 594.861 108.16 593.608 108.16C592.368 108.16 591.248 108.44 590.247 109C589.248 109.56 588.461 110.34 587.888 111.34C587.314 112.327 587.028 113.467 587.028 114.76C587.028 116.04 587.314 117.18 587.888 118.18C588.461 119.167 589.248 119.947 590.247 120.52C591.248 121.08 592.368 121.36 593.608 121.36ZM620.819 125.64C617.299 125.64 614.772 124.92 613.239 123.48C611.706 122.027 610.939 119.633 610.939 116.3V104.52H615.919V115.18C615.919 117.487 616.286 119.127 617.019 120.1C617.766 121.073 619.032 121.56 620.819 121.56C622.606 121.56 623.866 121.073 624.599 120.1C625.346 119.127 625.719 117.487 625.719 115.18V104.52H630.699V116.3C630.699 119.633 629.932 122.027 628.399 123.48C626.866 124.92 624.339 125.64 620.819 125.64ZM637.962 125V104.52H642.942V107.5C643.662 106.327 644.562 105.433 645.642 104.82C646.722 104.193 647.908 103.88 649.202 103.88C649.882 103.88 650.575 103.973 651.282 104.16C652.002 104.333 652.615 104.567 653.122 104.86L651.062 109.08C650.622 108.813 650.108 108.6 649.522 108.44C648.948 108.28 648.415 108.2 647.922 108.2C647.068 108.2 646.262 108.42 645.502 108.86C644.742 109.3 644.122 109.867 643.642 110.56C643.175 111.253 642.942 112 642.942 112.8V125H637.962ZM657.258 125V104.52H662.238V106.98C662.945 106.073 663.885 105.333 665.058 104.76C666.245 104.173 667.598 103.88 669.118 103.88C670.692 103.88 672.065 104.22 673.238 104.9C674.425 105.567 675.345 106.513 675.998 107.74C676.652 108.967 676.978 110.42 676.978 112.1V125H671.998V113.14C671.998 111.433 671.572 110.12 670.718 109.2C669.878 108.267 668.712 107.8 667.218 107.8C666.192 107.8 665.305 108.013 664.558 108.44C663.812 108.853 663.238 109.413 662.838 110.12C662.438 110.813 662.238 111.587 662.238 112.44V125H657.258ZM694.089 125.64C691.902 125.64 689.942 125.167 688.209 124.22C686.489 123.273 685.122 121.98 684.109 120.34C683.109 118.7 682.609 116.853 682.609 114.8C682.609 113.28 682.895 111.86 683.469 110.54C684.042 109.22 684.835 108.06 685.849 107.06C686.862 106.06 688.042 105.28 689.389 104.72C690.735 104.16 692.189 103.88 693.749 103.88C695.882 103.88 697.749 104.32 699.349 105.2C700.962 106.08 702.215 107.307 703.109 108.88C704.015 110.453 704.469 112.287 704.469 114.38C704.469 114.553 704.462 114.7 704.449 114.82C704.435 114.927 704.409 115.113 704.369 115.38H687.689C687.689 116.62 687.969 117.713 688.529 118.66C689.089 119.593 689.869 120.327 690.869 120.86C691.882 121.38 693.042 121.64 694.349 121.64C695.589 121.64 696.689 121.393 697.649 120.9C698.622 120.393 699.502 119.627 700.289 118.6L703.909 120.46C702.935 122.087 701.582 123.36 699.849 124.28C698.129 125.187 696.209 125.64 694.089 125.64ZM687.909 112.26H699.529C699.355 111.327 699.002 110.52 698.469 109.84C697.935 109.16 697.262 108.633 696.449 108.26C695.635 107.873 694.729 107.68 693.729 107.68C692.675 107.68 691.735 107.867 690.909 108.24C690.082 108.613 689.409 109.14 688.889 109.82C688.369 110.5 688.042 111.313 687.909 112.26ZM710.365 135.4L716.425 123.18L706.685 104.52H712.365L719.305 118.32L725.445 104.52H731.125L716.045 135.4H710.365ZM737.648 125.64C737.034 125.64 736.474 125.487 735.968 125.18C735.474 124.887 735.074 124.493 734.768 124C734.474 123.493 734.328 122.94 734.328 122.34C734.328 121.727 734.474 121.173 734.768 120.68C735.074 120.187 735.474 119.793 735.968 119.5C736.474 119.193 737.034 119.04 737.648 119.04C738.261 119.04 738.814 119.193 739.308 119.5C739.801 119.793 740.194 120.187 740.488 120.68C740.781 121.173 740.928 121.727 740.928 122.34C740.928 122.94 740.781 123.493 740.488 124C740.194 124.493 739.801 124.887 739.308 125.18C738.814 125.487 738.261 125.64 737.648 125.64Z" fill="white"/>
<g filter="url(#filter0_d_4_2869)">
<rect x="30" y="207" width="609" height="70" rx="12" fill="url(#paint0_linear_4_2869)" fill-opacity="0.5"/>
<rect x="31" y="208" width="607" height="68" rx="11" stroke="url(#paint1_linear_4_2869)" stroke-width="2" style="mix-blend-mode:overlay"/>
<path d="M145.111 238.083H143.5V238H125.5V246H136.803C135.154 250.657 130.723 254 125.5 254C118.873 254 113.5 248.627 113.5 242C113.5 235.373 118.873 230 125.5 230C128.559 230 131.342 231.154 133.461 233.039L139.118 227.382C135.546 224.053 130.768 222 125.5 222C114.455 222 105.5 230.955 105.5 242C105.5 253.045 114.455 262 125.5 262C136.545 262 145.5 253.045 145.5 242C145.5 240.659 145.362 239.35 145.111 238.083Z" fill="#FFC107"/>
<path d="M107.806 232.691L114.377 237.51C116.155 233.108 120.461 230 125.5 230C128.559 230 131.342 231.154 133.461 233.039L139.118 227.382C135.546 224.053 130.768 222 125.5 222C117.818 222 111.156 226.337 107.806 232.691Z" fill="#FF3D00"/>
<path d="M125.5 262.001C130.666 262.001 135.36 260.024 138.909 256.809L132.719 251.571C130.644 253.15 128.107 254.003 125.5 254.001C120.298 254.001 115.881 250.684 114.217 246.055L107.695 251.08C111.005 257.557 117.727 262.001 125.5 262.001Z" fill="#4CAF50"/>
<path d="M145.111 238.083H143.5V238H125.5V246H136.803C136.014 248.216 134.593 250.153 132.716 251.571L132.719 251.569L138.909 256.807C138.471 257.205 145.5 252 145.5 242C145.5 240.659 145.362 239.35 145.111 238.083Z" fill="#1976D2"/>
<path d="M224.14 251.48C222.27 251.48 220.525 251.155 218.905 250.505C217.285 249.845 215.86 248.93 214.63 247.76C213.41 246.59 212.455 245.23 211.765 243.68C211.075 242.12 210.73 240.44 210.73 238.64C210.73 236.85 211.075 235.175 211.765 233.615C212.465 232.055 213.425 230.69 214.645 229.52C215.865 228.35 217.28 227.44 218.89 226.79C220.51 226.13 222.25 225.8 224.11 225.8C225.64 225.8 227.09 226.02 228.46 226.46C229.83 226.9 231.015 227.485 232.015 228.215L230.29 231.545C229.54 230.945 228.65 230.48 227.62 230.15C226.59 229.82 225.505 229.655 224.365 229.655C223.015 229.655 221.77 229.885 220.63 230.345C219.49 230.805 218.495 231.445 217.645 232.265C216.805 233.075 216.155 234.025 215.695 235.115C215.235 236.205 215.005 237.38 215.005 238.64C215.005 239.9 215.235 241.075 215.695 242.165C216.155 243.255 216.805 244.21 217.645 245.03C218.495 245.84 219.49 246.475 220.63 246.935C221.77 247.395 223.015 247.625 224.365 247.625C225.505 247.625 226.59 247.46 227.62 247.13C228.65 246.8 229.54 246.335 230.29 245.735L232.015 249.065C231.045 249.775 229.875 250.355 228.505 250.805C227.145 251.255 225.69 251.48 224.14 251.48ZM243.319 251.48C241.659 251.48 240.159 251.135 238.819 250.445C237.489 249.755 236.434 248.795 235.654 247.565C234.874 246.335 234.484 244.92 234.484 243.32C234.484 241.71 234.874 240.295 235.654 239.075C236.434 237.845 237.489 236.885 238.819 236.195C240.149 235.505 241.649 235.16 243.319 235.16C244.979 235.16 246.474 235.505 247.804 236.195C249.144 236.885 250.199 237.845 250.969 239.075C251.749 240.295 252.139 241.71 252.139 243.32C252.139 244.92 251.749 246.335 250.969 247.565C250.199 248.795 249.144 249.755 247.804 250.445C246.474 251.135 244.979 251.48 243.319 251.48ZM243.319 248.27C244.259 248.27 245.099 248.06 245.839 247.64C246.589 247.21 247.179 246.625 247.609 245.885C248.039 245.135 248.254 244.28 248.254 243.32C248.254 242.35 248.039 241.495 247.609 240.755C247.179 240.005 246.589 239.42 245.839 239C245.099 238.58 244.259 238.37 243.319 238.37C242.389 238.37 241.549 238.58 240.799 239C240.049 239.42 239.459 240.005 239.029 240.755C238.599 241.495 238.384 242.35 238.384 243.32C238.384 244.28 238.599 245.135 239.029 245.885C239.459 246.625 240.049 247.21 240.799 247.64C241.549 248.06 242.389 248.27 243.319 248.27ZM256.604 251V235.64H260.339V237.485C260.869 236.805 261.574 236.25 262.454 235.82C263.344 235.38 264.359 235.16 265.499 235.16C266.679 235.16 267.709 235.415 268.589 235.925C269.479 236.425 270.169 237.135 270.659 238.055C271.149 238.975 271.394 240.065 271.394 241.325V251H267.659V242.105C267.659 240.825 267.339 239.84 266.699 239.15C266.069 238.45 265.194 238.1 264.074 238.1C263.304 238.1 262.639 238.26 262.079 238.58C261.519 238.89 261.089 239.31 260.789 239.84C260.489 240.36 260.339 240.94 260.339 241.58V251H256.604ZM281.501 251.48C280.111 251.48 279.026 251.03 278.246 250.13C277.476 249.23 277.091 247.965 277.091 246.335V238.475H275.216V235.64H277.091V229.895H280.826V235.64H284.366V238.475H280.826V246.08C280.826 246.75 280.961 247.265 281.231 247.625C281.501 247.975 281.886 248.15 282.386 248.15C282.906 248.15 283.381 247.99 283.811 247.67L284.756 250.655C284.306 250.915 283.791 251.115 283.211 251.255C282.631 251.405 282.061 251.48 281.501 251.48ZM289.021 251V235.64H292.756V251H289.021ZM290.896 232.49C290.486 232.49 290.106 232.39 289.756 232.19C289.416 231.98 289.141 231.705 288.931 231.365C288.731 231.015 288.631 230.63 288.631 230.21C288.631 229.8 288.731 229.425 288.931 229.085C289.141 228.745 289.416 228.475 289.756 228.275C290.106 228.065 290.486 227.96 290.896 227.96C291.316 227.96 291.691 228.065 292.021 228.275C292.361 228.475 292.631 228.745 292.831 229.085C293.041 229.425 293.146 229.8 293.146 230.21C293.146 230.63 293.041 231.015 292.831 231.365C292.631 231.705 292.361 231.98 292.021 232.19C291.691 232.39 291.316 232.49 290.896 232.49ZM298.557 251V235.64H302.292V237.485C302.822 236.805 303.527 236.25 304.407 235.82C305.297 235.38 306.312 235.16 307.452 235.16C308.632 235.16 309.662 235.415 310.542 235.925C311.432 236.425 312.122 237.135 312.612 238.055C313.102 238.975 313.347 240.065 313.347 241.325V251H309.612V242.105C309.612 240.825 309.292 239.84 308.652 239.15C308.022 238.45 307.147 238.1 306.027 238.1C305.257 238.1 304.592 238.26 304.032 238.58C303.472 238.89 303.042 239.31 302.742 239.84C302.442 240.36 302.292 240.94 302.292 241.58V251H298.557ZM325.925 251.48C323.285 251.48 321.39 250.94 320.24 249.86C319.09 248.77 318.515 246.975 318.515 244.475V235.64H322.25V243.635C322.25 245.365 322.525 246.595 323.075 247.325C323.635 248.055 324.585 248.42 325.925 248.42C327.265 248.42 328.21 248.055 328.76 247.325C329.32 246.595 329.6 245.365 329.6 243.635V235.64H333.335V244.475C333.335 246.975 332.76 248.77 331.61 249.86C330.46 250.94 328.565 251.48 325.925 251.48ZM346.102 251.48C344.462 251.48 342.992 251.125 341.692 250.415C340.402 249.705 339.377 248.735 338.617 247.505C337.867 246.275 337.492 244.89 337.492 243.35C337.492 242.21 337.707 241.145 338.137 240.155C338.567 239.165 339.162 238.295 339.922 237.545C340.682 236.795 341.567 236.21 342.577 235.79C343.587 235.37 344.677 235.16 345.847 235.16C347.447 235.16 348.847 235.49 350.047 236.15C351.257 236.81 352.197 237.73 352.867 238.91C353.547 240.09 353.887 241.465 353.887 243.035C353.887 243.165 353.882 243.275 353.872 243.365C353.862 243.445 353.842 243.585 353.812 243.785H341.302C341.302 244.715 341.512 245.535 341.932 246.245C342.352 246.945 342.937 247.495 343.687 247.895C344.447 248.285 345.317 248.48 346.297 248.48C347.227 248.48 348.052 248.295 348.772 247.925C349.502 247.545 350.162 246.97 350.752 246.2L353.467 247.595C352.737 248.815 351.722 249.77 350.422 250.46C349.132 251.14 347.692 251.48 346.102 251.48ZM341.467 241.445H350.182C350.052 240.745 349.787 240.14 349.387 239.63C348.987 239.12 348.482 238.725 347.872 238.445C347.262 238.155 346.582 238.01 345.832 238.01C345.042 238.01 344.337 238.15 343.717 238.43C343.097 238.71 342.592 239.105 342.202 239.615C341.812 240.125 341.567 240.735 341.467 241.445ZM369.186 251L361.956 226.25H366.336L371.556 245.675L377.541 226.25H380.511L386.511 245.675L391.731 226.25H396.096L388.881 251H384.501L379.041 233.855L373.566 251H369.186ZM400.026 251V235.64H403.761V251H400.026ZM401.901 232.49C401.491 232.49 401.111 232.39 400.761 232.19C400.421 231.98 400.146 231.705 399.936 231.365C399.736 231.015 399.636 230.63 399.636 230.21C399.636 229.8 399.736 229.425 399.936 229.085C400.146 228.745 400.421 228.475 400.761 228.275C401.111 228.065 401.491 227.96 401.901 227.96C402.321 227.96 402.696 228.065 403.026 228.275C403.366 228.475 403.636 228.745 403.836 229.085C404.046 229.425 404.151 229.8 404.151 230.21C404.151 230.63 404.046 231.015 403.836 231.365C403.636 231.705 403.366 231.98 403.026 232.19C402.696 232.39 402.321 232.49 401.901 232.49ZM414.333 251.48C412.943 251.48 411.858 251.03 411.078 250.13C410.308 249.23 409.923 247.965 409.923 246.335V238.475H408.048V235.64H409.923V229.895H413.658V235.64H417.198V238.475H413.658V246.08C413.658 246.75 413.793 247.265 414.063 247.625C414.333 247.975 414.718 248.15 415.218 248.15C415.738 248.15 416.213 247.99 416.643 247.67L417.588 250.655C417.138 250.915 416.623 251.115 416.043 251.255C415.463 251.405 414.893 251.48 414.333 251.48ZM421.868 251V225.185H425.603V237.485C426.133 236.805 426.838 236.25 427.718 235.82C428.608 235.38 429.623 235.16 430.763 235.16C431.943 235.16 432.973 235.415 433.853 235.925C434.743 236.425 435.433 237.135 435.923 238.055C436.413 238.975 436.658 240.065 436.658 241.325V251H432.923V242.105C432.923 240.825 432.603 239.84 431.963 239.15C431.333 238.45 430.458 238.1 429.338 238.1C428.568 238.1 427.903 238.26 427.343 238.58C426.783 238.89 426.353 239.31 426.053 239.84C425.753 240.36 425.603 240.94 425.603 241.58V251H421.868ZM461.3 251.48C459.59 251.48 458 251.155 456.53 250.505C455.06 249.845 453.77 248.935 452.66 247.775C451.56 246.605 450.7 245.24 450.08 243.68C449.47 242.12 449.165 240.44 449.165 238.64C449.165 236.93 449.45 235.305 450.02 233.765C450.59 232.215 451.415 230.845 452.495 229.655C453.575 228.465 454.88 227.525 456.41 226.835C457.95 226.145 459.68 225.8 461.6 225.8C462.76 225.8 463.895 225.935 465.005 226.205C466.115 226.475 467.16 226.86 468.14 227.36C469.13 227.86 470.02 228.465 470.81 229.175L468.92 232.205C468.02 231.305 466.92 230.6 465.62 230.09C464.32 229.57 462.99 229.31 461.63 229.31C460.32 229.31 459.155 229.545 458.135 230.015C457.115 230.485 456.25 231.145 455.54 231.995C454.84 232.835 454.305 233.81 453.935 234.92C453.575 236.02 453.395 237.205 453.395 238.475C453.395 239.845 453.6 241.105 454.01 242.255C454.42 243.395 454.99 244.39 455.72 245.24C456.46 246.08 457.32 246.73 458.3 247.19C459.28 247.64 460.335 247.865 461.465 247.865C462.385 247.865 463.275 247.715 464.135 247.415C464.995 247.115 465.765 246.685 466.445 246.125C467.125 245.565 467.665 244.9 468.065 244.13C468.465 243.36 468.665 242.51 468.665 241.58V241.04H461.225V237.965H472.67V241.16C472.67 242.76 472.35 244.195 471.71 245.465C471.07 246.735 470.205 247.82 469.115 248.72C468.035 249.61 466.82 250.295 465.47 250.775C464.12 251.245 462.73 251.48 461.3 251.48ZM484.93 251.48C483.27 251.48 481.77 251.135 480.43 250.445C479.1 249.755 478.045 248.795 477.265 247.565C476.485 246.335 476.095 244.92 476.095 243.32C476.095 241.71 476.485 240.295 477.265 239.075C478.045 237.845 479.1 236.885 480.43 236.195C481.76 235.505 483.26 235.16 484.93 235.16C486.59 235.16 488.085 235.505 489.415 236.195C490.755 236.885 491.81 237.845 492.58 239.075C493.36 240.295 493.75 241.71 493.75 243.32C493.75 244.92 493.36 246.335 492.58 247.565C491.81 248.795 490.755 249.755 489.415 250.445C488.085 251.135 486.59 251.48 484.93 251.48ZM484.93 248.27C485.87 248.27 486.71 248.06 487.45 247.64C488.2 247.21 488.79 246.625 489.22 245.885C489.65 245.135 489.865 244.28 489.865 243.32C489.865 242.35 489.65 241.495 489.22 240.755C488.79 240.005 488.2 239.42 487.45 239C486.71 238.58 485.87 238.37 484.93 238.37C484 238.37 483.16 238.58 482.41 239C481.66 239.42 481.07 240.005 480.64 240.755C480.21 241.495 479.995 242.35 479.995 243.32C479.995 244.28 480.21 245.135 480.64 245.885C481.07 246.625 481.66 247.21 482.41 247.64C483.16 248.06 484 248.27 484.93 248.27ZM505.819 251.48C504.159 251.48 502.659 251.135 501.319 250.445C499.989 249.755 498.934 248.795 498.154 247.565C497.374 246.335 496.984 244.92 496.984 243.32C496.984 241.71 497.374 240.295 498.154 239.075C498.934 237.845 499.989 236.885 501.319 236.195C502.649 235.505 504.149 235.16 505.819 235.16C507.479 235.16 508.974 235.505 510.304 236.195C511.644 236.885 512.699 237.845 513.469 239.075C514.249 240.295 514.639 241.71 514.639 243.32C514.639 244.92 514.249 246.335 513.469 247.565C512.699 248.795 511.644 249.755 510.304 250.445C508.974 251.135 507.479 251.48 505.819 251.48ZM505.819 248.27C506.759 248.27 507.599 248.06 508.339 247.64C509.089 247.21 509.679 246.625 510.109 245.885C510.539 245.135 510.754 244.28 510.754 243.32C510.754 242.35 510.539 241.495 510.109 240.755C509.679 240.005 509.089 239.42 508.339 239C507.599 238.58 506.759 238.37 505.819 238.37C504.889 238.37 504.049 238.58 503.299 239C502.549 239.42 501.959 240.005 501.529 240.755C501.099 241.495 500.884 242.35 500.884 243.32C500.884 244.28 501.099 245.135 501.529 245.885C501.959 246.625 502.549 247.21 503.299 247.64C504.049 248.06 504.889 248.27 505.819 248.27ZM526.333 259.25C524.313 259.25 522.608 258.87 521.218 258.11C519.838 257.35 518.828 256.24 518.188 254.78L521.248 253.31C521.688 254.14 522.368 254.8 523.288 255.29C524.208 255.79 525.223 256.04 526.333 256.04C527.313 256.04 528.178 255.845 528.928 255.455C529.678 255.065 530.268 254.51 530.698 253.79C531.128 253.08 531.343 252.24 531.343 251.27V248.54C530.683 249.46 529.853 250.18 528.853 250.7C527.863 251.22 526.778 251.48 525.598 251.48C524.198 251.48 522.923 251.13 521.773 250.43C520.623 249.73 519.708 248.765 519.028 247.535C518.348 246.305 518.008 244.9 518.008 243.32C518.008 241.75 518.338 240.355 518.998 239.135C519.668 237.905 520.578 236.935 521.728 236.225C522.888 235.515 524.208 235.16 525.688 235.16C526.868 235.16 527.953 235.41 528.943 235.91C529.943 236.41 530.743 237.105 531.343 237.995V235.64H535.078V251.42C535.078 253 534.748 254.375 534.088 255.545C533.438 256.725 532.463 257.635 531.163 258.275C529.863 258.925 528.253 259.25 526.333 259.25ZM526.663 248.285C527.603 248.285 528.433 248.075 529.153 247.655C529.873 247.225 530.438 246.64 530.848 245.9C531.258 245.15 531.463 244.295 531.463 243.335C531.463 242.375 531.253 241.52 530.833 240.77C530.423 240.01 529.858 239.42 529.138 239C528.428 238.57 527.613 238.355 526.693 238.355C525.773 238.355 524.953 238.57 524.233 239C523.513 239.42 522.948 240.01 522.538 240.77C522.128 241.52 521.923 242.375 521.923 243.335C521.923 244.295 522.123 245.15 522.523 245.9C522.933 246.64 523.493 247.225 524.203 247.655C524.923 248.075 525.743 248.285 526.663 248.285ZM540.872 251V225.2H544.607V251H540.872ZM557.713 251.48C556.073 251.48 554.603 251.125 553.303 250.415C552.013 249.705 550.988 248.735 550.228 247.505C549.478 246.275 549.103 244.89 549.103 243.35C549.103 242.21 549.318 241.145 549.748 240.155C550.178 239.165 550.773 238.295 551.533 237.545C552.293 236.795 553.178 236.21 554.188 235.79C555.198 235.37 556.288 235.16 557.458 235.16C559.058 235.16 560.458 235.49 561.658 236.15C562.868 236.81 563.808 237.73 564.478 238.91C565.158 240.09 565.498 241.465 565.498 243.035C565.498 243.165 565.493 243.275 565.483 243.365C565.473 243.445 565.453 243.585 565.423 243.785H552.913C552.913 244.715 553.123 245.535 553.543 246.245C553.963 246.945 554.548 247.495 555.298 247.895C556.058 248.285 556.928 248.48 557.908 248.48C558.838 248.48 559.663 248.295 560.383 247.925C561.113 247.545 561.773 246.97 562.363 246.2L565.078 247.595C564.348 248.815 563.333 249.77 562.033 250.46C560.743 251.14 559.303 251.48 557.713 251.48ZM553.078 241.445H561.793C561.663 240.745 561.398 240.14 560.998 239.63C560.598 239.12 560.093 238.725 559.483 238.445C558.873 238.155 558.193 238.01 557.443 238.01C556.653 238.01 555.948 238.15 555.328 238.43C554.708 238.71 554.203 239.105 553.813 239.615C553.423 240.125 553.178 240.735 553.078 241.445Z" fill="white"/>
</g>
<path d="M39.41 177V160.5H42.03V174.7H48.33V177H39.41ZM55.7827 177.32C54.6893 177.32 53.7093 177.083 52.8427 176.61C51.9827 176.137 51.2993 175.49 50.7927 174.67C50.2927 173.85 50.0427 172.927 50.0427 171.9C50.0427 171.14 50.186 170.43 50.4727 169.77C50.7593 169.11 51.156 168.53 51.6627 168.03C52.1693 167.53 52.7593 167.14 53.4327 166.86C54.106 166.58 54.8327 166.44 55.6127 166.44C56.6793 166.44 57.6127 166.66 58.4127 167.1C59.2193 167.54 59.846 168.153 60.2927 168.94C60.746 169.727 60.9727 170.643 60.9727 171.69C60.9727 171.777 60.9693 171.85 60.9627 171.91C60.956 171.963 60.9427 172.057 60.9227 172.19H52.5827C52.5827 172.81 52.7227 173.357 53.0027 173.83C53.2827 174.297 53.6727 174.663 54.1727 174.93C54.6793 175.19 55.2593 175.32 55.9127 175.32C56.5327 175.32 57.0827 175.197 57.5627 174.95C58.0493 174.697 58.4893 174.313 58.8827 173.8L60.6927 174.73C60.206 175.543 59.5293 176.18 58.6627 176.64C57.8027 177.093 56.8427 177.32 55.7827 177.32ZM52.6927 170.63H58.5027C58.416 170.163 58.2393 169.76 57.9727 169.42C57.706 169.08 57.3693 168.817 56.9627 168.63C56.556 168.437 56.1027 168.34 55.6027 168.34C55.076 168.34 54.606 168.433 54.1927 168.62C53.7793 168.807 53.4427 169.07 53.1827 169.41C52.9227 169.75 52.7593 170.157 52.6927 170.63ZM67.0709 177.32C66.1443 177.32 65.4209 177.02 64.9009 176.42C64.3876 175.82 64.1309 174.977 64.1309 173.89V168.65H62.8809V166.76H64.1309V162.93H66.6209V166.76H68.9809V168.65H66.6209V173.72C66.6209 174.167 66.7109 174.51 66.8909 174.75C67.0709 174.983 67.3276 175.1 67.6609 175.1C68.0076 175.1 68.3243 174.993 68.6109 174.78L69.2409 176.77C68.9409 176.943 68.5976 177.077 68.2109 177.17C67.8243 177.27 67.4443 177.32 67.0709 177.32ZM72.7241 165.79L72.1041 165.27C72.2441 165.123 72.3841 164.927 72.5241 164.68C72.6707 164.433 72.7974 164.17 72.9041 163.89C73.0107 163.61 73.0774 163.347 73.1041 163.1C72.7507 163.02 72.4674 162.853 72.2541 162.6C72.0407 162.34 71.9341 162.03 71.9341 161.67C71.9341 161.237 72.0741 160.883 72.3541 160.61C72.6407 160.337 73.0107 160.2 73.4641 160.2C73.9241 160.2 74.2941 160.347 74.5741 160.64C74.8607 160.927 75.0041 161.333 75.0041 161.86C75.0041 162.5 74.7974 163.177 74.3841 163.89C73.9707 164.597 73.4174 165.23 72.7241 165.79ZM80.2656 177.32C79.4056 177.32 78.639 177.16 77.9656 176.84C77.299 176.513 76.7556 176.047 76.3356 175.44L77.4356 173.82C77.829 174.34 78.2656 174.743 78.7456 175.03C79.2323 175.317 79.7356 175.46 80.2556 175.46C80.5756 175.46 80.859 175.403 81.1056 175.29C81.3523 175.17 81.549 175 81.6956 174.78C81.8423 174.553 81.9156 174.287 81.9156 173.98C81.9156 173.66 81.8323 173.41 81.6656 173.23C81.499 173.05 81.249 172.887 80.9156 172.74C80.5823 172.593 80.1623 172.42 79.6556 172.22C79.229 172.04 78.8223 171.84 78.4356 171.62C78.049 171.4 77.729 171.123 77.4756 170.79C77.229 170.45 77.1056 170.02 77.1056 169.5C77.1056 168.907 77.269 168.38 77.5956 167.92C77.929 167.46 78.3823 167.1 78.9556 166.84C79.5356 166.58 80.1956 166.45 80.9356 166.45C81.469 166.45 82.0056 166.547 82.5456 166.74C83.0856 166.927 83.6256 167.2 84.1656 167.56L83.2656 169.13C82.4856 168.483 81.7156 168.16 80.9556 168.16C80.509 168.16 80.149 168.267 79.8756 168.48C79.609 168.693 79.4756 168.967 79.4756 169.3C79.4756 169.573 79.5923 169.807 79.8256 170C80.059 170.193 80.349 170.363 80.6956 170.51C81.0423 170.657 81.389 170.797 81.7356 170.93C82.2823 171.13 82.7623 171.343 83.1756 171.57C83.589 171.797 83.9123 172.09 84.1456 172.45C84.379 172.81 84.4956 173.29 84.4956 173.89C84.4956 174.61 84.3223 175.227 83.9756 175.74C83.6356 176.253 83.149 176.647 82.5156 176.92C81.8823 177.187 81.1323 177.32 80.2656 177.32ZM97.1752 177.32C96.3818 177.32 95.6618 177.22 95.0152 177.02C94.3685 176.82 93.7985 176.573 93.3052 176.28C92.8185 175.98 92.4085 175.68 92.0752 175.38C91.7418 175.08 91.4885 174.833 91.3152 174.64L92.6952 172.52C92.8818 172.713 93.1152 172.943 93.3952 173.21C93.6818 173.477 94.0152 173.74 94.3952 174C94.7752 174.253 95.2018 174.467 95.6752 174.64C96.1485 174.807 96.6718 174.89 97.2452 174.89C97.7852 174.89 98.2685 174.8 98.6952 174.62C99.1218 174.44 99.4618 174.173 99.7152 173.82C99.9685 173.46 100.095 173.017 100.095 172.49C100.095 172.03 99.9985 171.637 99.8052 171.31C99.6185 170.983 99.3485 170.7 98.9952 170.46C98.6418 170.213 98.2218 169.98 97.7352 169.76C97.2485 169.533 96.7052 169.3 96.1052 169.06C95.6785 168.88 95.2552 168.67 94.8352 168.43C94.4218 168.19 94.0452 167.903 93.7052 167.57C93.3718 167.237 93.1052 166.853 92.9052 166.42C92.7052 165.98 92.6052 165.473 92.6052 164.9C92.6052 164.28 92.7252 163.69 92.9652 163.13C93.2118 162.563 93.5585 162.06 94.0052 161.62C94.4518 161.18 94.9818 160.833 95.5952 160.58C96.2152 160.327 96.9052 160.2 97.6652 160.2C98.2852 160.2 98.8885 160.29 99.4752 160.47C100.062 160.65 100.595 160.883 101.075 161.17C101.562 161.457 101.958 161.763 102.265 162.09L101.125 164.08C100.872 163.82 100.568 163.577 100.215 163.35C99.8685 163.117 99.4818 162.93 99.0552 162.79C98.6285 162.65 98.1818 162.58 97.7152 162.58C97.1685 162.58 96.7052 162.687 96.3252 162.9C95.9452 163.113 95.6518 163.393 95.4452 163.74C95.2452 164.08 95.1452 164.45 95.1452 164.85C95.1452 165.197 95.2152 165.493 95.3552 165.74C95.5018 165.98 95.7018 166.187 95.9552 166.36C96.2085 166.533 96.4985 166.693 96.8252 166.84C97.1585 166.98 97.5085 167.12 97.8752 167.26C98.6018 167.553 99.2718 167.853 99.8852 168.16C100.505 168.46 101.042 168.803 101.495 169.19C101.948 169.57 102.298 170.023 102.545 170.55C102.798 171.07 102.925 171.697 102.925 172.43C102.925 173.457 102.678 174.337 102.185 175.07C101.698 175.803 101.022 176.363 100.155 176.75C99.2952 177.13 98.3018 177.32 97.1752 177.32ZM109.298 177.32C108.371 177.32 107.648 177.02 107.127 176.42C106.614 175.82 106.358 174.977 106.358 173.89V168.65H105.108V166.76H106.358V162.93H108.848V166.76H111.208V168.65H108.848V173.72C108.848 174.167 108.938 174.51 109.118 174.75C109.298 174.983 109.554 175.1 109.888 175.1C110.234 175.1 110.551 174.993 110.838 174.78L111.468 176.77C111.168 176.943 110.824 177.077 110.438 177.17C110.051 177.27 109.671 177.32 109.298 177.32ZM118.592 177.32C117.645 177.32 116.785 177.087 116.012 176.62C115.245 176.147 114.635 175.5 114.182 174.68C113.735 173.86 113.512 172.923 113.512 171.87C113.512 170.83 113.728 169.903 114.162 169.09C114.602 168.27 115.205 167.623 115.972 167.15C116.738 166.677 117.612 166.44 118.592 166.44C119.392 166.44 120.128 166.607 120.802 166.94C121.475 167.273 122.008 167.737 122.402 168.33V166.76H124.892V177H122.402V175.36C121.948 175.98 121.392 176.463 120.732 176.81C120.078 177.15 119.365 177.32 118.592 177.32ZM119.302 175.19C119.922 175.19 120.468 175.05 120.942 174.77C121.415 174.483 121.788 174.09 122.062 173.59C122.335 173.09 122.472 172.52 122.472 171.88C122.472 171.233 122.335 170.663 122.062 170.17C121.788 169.67 121.415 169.28 120.942 169C120.468 168.713 119.922 168.57 119.302 168.57C118.688 168.57 118.142 168.713 117.662 169C117.182 169.28 116.805 169.67 116.532 170.17C116.258 170.67 116.122 171.24 116.122 171.88C116.122 172.52 116.258 173.09 116.532 173.59C116.805 174.09 117.182 174.483 117.662 174.77C118.142 175.05 118.688 175.19 119.302 175.19ZM128.754 177V166.76H131.244V168.25C131.604 167.663 132.054 167.217 132.594 166.91C133.134 166.597 133.728 166.44 134.374 166.44C134.714 166.44 135.061 166.487 135.414 166.58C135.774 166.667 136.081 166.783 136.334 166.93L135.304 169.04C135.084 168.907 134.828 168.8 134.534 168.72C134.248 168.64 133.981 168.6 133.734 168.6C133.308 168.6 132.904 168.71 132.524 168.93C132.144 169.15 131.834 169.433 131.594 169.78C131.361 170.127 131.244 170.5 131.244 170.9V177H128.754ZM141.583 177.32C140.656 177.32 139.933 177.02 139.413 176.42C138.899 175.82 138.643 174.977 138.643 173.89V168.65H137.393V166.76H138.643V162.93H141.133V166.76H143.493V168.65H141.133V173.72C141.133 174.167 141.223 174.51 141.403 174.75C141.583 174.983 141.839 175.1 142.173 175.1C142.519 175.1 142.836 174.993 143.123 174.78L143.753 176.77C143.453 176.943 143.109 177.077 142.723 177.17C142.336 177.27 141.956 177.32 141.583 177.32ZM158.219 177.32C157.439 177.32 156.715 177.147 156.049 176.8C155.389 176.453 154.835 175.973 154.389 175.36V177H151.899V159.8H154.389V168.33C154.802 167.737 155.335 167.273 155.989 166.94C156.649 166.607 157.375 166.44 158.169 166.44C159.149 166.44 160.025 166.677 160.799 167.15C161.572 167.623 162.179 168.27 162.619 169.09C163.065 169.903 163.289 170.833 163.289 171.88C163.289 172.933 163.062 173.87 162.609 174.69C162.155 175.51 161.545 176.153 160.779 176.62C160.019 177.087 159.165 177.32 158.219 177.32ZM157.509 175.19C158.129 175.19 158.675 175.05 159.149 174.77C159.629 174.483 160.002 174.093 160.269 173.6C160.542 173.1 160.679 172.53 160.679 171.89C160.679 171.25 160.539 170.68 160.259 170.18C159.985 169.673 159.612 169.28 159.139 169C158.665 168.713 158.122 168.57 157.509 168.57C156.895 168.57 156.345 168.713 155.859 169C155.379 169.28 155.002 169.673 154.729 170.18C154.455 170.68 154.319 171.25 154.319 171.89C154.319 172.53 154.452 173.1 154.719 173.6C154.992 174.093 155.369 174.483 155.849 174.77C156.335 175.05 156.889 175.19 157.509 175.19ZM166.401 182.2L169.431 176.09L164.561 166.76H167.401L170.871 173.66L173.941 166.76H176.781L169.241 182.2H166.401ZM188.503 177.32C187.71 177.32 186.99 177.22 186.343 177.02C185.697 176.82 185.127 176.573 184.633 176.28C184.147 175.98 183.737 175.68 183.403 175.38C183.07 175.08 182.817 174.833 182.643 174.64L184.023 172.52C184.21 172.713 184.443 172.943 184.723 173.21C185.01 173.477 185.343 173.74 185.723 174C186.103 174.253 186.53 174.467 187.003 174.64C187.477 174.807 188 174.89 188.573 174.89C189.113 174.89 189.597 174.8 190.023 174.62C190.45 174.44 190.79 174.173 191.043 173.82C191.297 173.46 191.423 173.017 191.423 172.49C191.423 172.03 191.327 171.637 191.133 171.31C190.947 170.983 190.677 170.7 190.323 170.46C189.97 170.213 189.55 169.98 189.063 169.76C188.577 169.533 188.033 169.3 187.433 169.06C187.007 168.88 186.583 168.67 186.163 168.43C185.75 168.19 185.373 167.903 185.033 167.57C184.7 167.237 184.433 166.853 184.233 166.42C184.033 165.98 183.933 165.473 183.933 164.9C183.933 164.28 184.053 163.69 184.293 163.13C184.54 162.563 184.887 162.06 185.333 161.62C185.78 161.18 186.31 160.833 186.923 160.58C187.543 160.327 188.233 160.2 188.993 160.2C189.613 160.2 190.217 160.29 190.803 160.47C191.39 160.65 191.923 160.883 192.403 161.17C192.89 161.457 193.287 161.763 193.593 162.09L192.453 164.08C192.2 163.82 191.897 163.577 191.543 163.35C191.197 163.117 190.81 162.93 190.383 162.79C189.957 162.65 189.51 162.58 189.043 162.58C188.497 162.58 188.033 162.687 187.653 162.9C187.273 163.113 186.98 163.393 186.773 163.74C186.573 164.08 186.473 164.45 186.473 164.85C186.473 165.197 186.543 165.493 186.683 165.74C186.83 165.98 187.03 166.187 187.283 166.36C187.537 166.533 187.827 166.693 188.153 166.84C188.487 166.98 188.837 167.12 189.203 167.26C189.93 167.553 190.6 167.853 191.213 168.16C191.833 168.46 192.37 168.803 192.823 169.19C193.277 169.57 193.627 170.023 193.873 170.55C194.127 171.07 194.253 171.697 194.253 172.43C194.253 173.457 194.007 174.337 193.513 175.07C193.027 175.803 192.35 176.363 191.483 176.75C190.623 177.13 189.63 177.32 188.503 177.32ZM197.436 177V166.76H199.926V177H197.436ZM198.686 164.66C198.412 164.66 198.159 164.593 197.926 164.46C197.699 164.32 197.516 164.137 197.376 163.91C197.242 163.677 197.176 163.42 197.176 163.14C197.176 162.867 197.242 162.617 197.376 162.39C197.516 162.163 197.699 161.983 197.926 161.85C198.159 161.71 198.412 161.64 198.686 161.64C198.966 161.64 199.216 161.71 199.436 161.85C199.662 161.983 199.842 162.163 199.976 162.39C200.116 162.617 200.186 162.867 200.186 163.14C200.186 163.42 200.116 163.677 199.976 163.91C199.842 164.137 199.662 164.32 199.436 164.46C199.216 164.593 198.966 164.66 198.686 164.66ZM208.573 182.5C207.227 182.5 206.09 182.247 205.163 181.74C204.243 181.233 203.57 180.493 203.143 179.52L205.183 178.54C205.477 179.093 205.93 179.533 206.543 179.86C207.157 180.193 207.833 180.36 208.573 180.36C209.227 180.36 209.803 180.23 210.303 179.97C210.803 179.71 211.197 179.34 211.483 178.86C211.77 178.387 211.913 177.827 211.913 177.18V175.36C211.473 175.973 210.92 176.453 210.253 176.8C209.593 177.147 208.87 177.32 208.083 177.32C207.15 177.32 206.3 177.087 205.533 176.62C204.767 176.153 204.157 175.51 203.703 174.69C203.25 173.87 203.023 172.933 203.023 171.88C203.023 170.833 203.243 169.903 203.683 169.09C204.13 168.27 204.737 167.623 205.503 167.15C206.277 166.677 207.157 166.44 208.143 166.44C208.93 166.44 209.653 166.607 210.313 166.94C210.98 167.273 211.513 167.737 211.913 168.33V166.76H214.403V177.28C214.403 178.333 214.183 179.25 213.743 180.03C213.31 180.817 212.66 181.423 211.793 181.85C210.927 182.283 209.853 182.5 208.573 182.5ZM208.793 175.19C209.42 175.19 209.973 175.05 210.453 174.77C210.933 174.483 211.31 174.093 211.583 173.6C211.857 173.1 211.993 172.53 211.993 171.89C211.993 171.25 211.853 170.68 211.573 170.18C211.3 169.673 210.923 169.28 210.443 169C209.97 168.713 209.427 168.57 208.813 168.57C208.2 168.57 207.653 168.713 207.173 169C206.693 169.28 206.317 169.673 206.043 170.18C205.77 170.68 205.633 171.25 205.633 171.89C205.633 172.53 205.767 173.1 206.033 173.6C206.307 174.093 206.68 174.483 207.153 174.77C207.633 175.05 208.18 175.19 208.793 175.19ZM218.266 177V166.76H220.756V167.99C221.109 167.537 221.579 167.167 222.166 166.88C222.759 166.587 223.436 166.44 224.196 166.44C224.983 166.44 225.669 166.61 226.256 166.95C226.849 167.283 227.309 167.757 227.636 168.37C227.963 168.983 228.126 169.71 228.126 170.55V177H225.636V171.07C225.636 170.217 225.423 169.56 224.996 169.1C224.576 168.633 223.993 168.4 223.246 168.4C222.733 168.4 222.289 168.507 221.916 168.72C221.543 168.927 221.256 169.207 221.056 169.56C220.856 169.907 220.756 170.293 220.756 170.72V177H218.266ZM231.791 177V166.76H234.281V177H231.791ZM233.041 164.66C232.768 164.66 232.514 164.593 232.281 164.46C232.054 164.32 231.871 164.137 231.731 163.91C231.598 163.677 231.531 163.42 231.531 163.14C231.531 162.867 231.598 162.617 231.731 162.39C231.871 162.163 232.054 161.983 232.281 161.85C232.514 161.71 232.768 161.64 233.041 161.64C233.321 161.64 233.571 161.71 233.791 161.85C234.018 161.983 234.198 162.163 234.331 162.39C234.471 162.617 234.541 162.867 234.541 163.14C234.541 163.42 234.471 163.677 234.331 163.91C234.198 164.137 234.018 164.32 233.791 164.46C233.571 164.593 233.321 164.66 233.041 164.66ZM238.149 177V166.76H240.639V167.99C240.992 167.537 241.462 167.167 242.049 166.88C242.642 166.587 243.319 166.44 244.079 166.44C244.865 166.44 245.552 166.61 246.139 166.95C246.732 167.283 247.192 167.757 247.519 168.37C247.845 168.983 248.009 169.71 248.009 170.55V177H245.519V171.07C245.519 170.217 245.305 169.56 244.879 169.1C244.459 168.633 243.875 168.4 243.129 168.4C242.615 168.4 242.172 168.507 241.799 168.72C241.425 168.927 241.139 169.207 240.939 169.56C240.739 169.907 240.639 170.293 240.639 170.72V177H238.149ZM256.464 182.5C255.117 182.5 253.981 182.247 253.054 181.74C252.134 181.233 251.461 180.493 251.034 179.52L253.074 178.54C253.367 179.093 253.821 179.533 254.434 179.86C255.047 180.193 255.724 180.36 256.464 180.36C257.117 180.36 257.694 180.23 258.194 179.97C258.694 179.71 259.087 179.34 259.374 178.86C259.661 178.387 259.804 177.827 259.804 177.18V175.36C259.364 175.973 258.811 176.453 258.144 176.8C257.484 177.147 256.761 177.32 255.974 177.32C255.041 177.32 254.191 177.087 253.424 176.62C252.657 176.153 252.047 175.51 251.594 174.69C251.141 173.87 250.914 172.933 250.914 171.88C250.914 170.833 251.134 169.903 251.574 169.09C252.021 168.27 252.627 167.623 253.394 167.15C254.167 166.677 255.047 166.44 256.034 166.44C256.821 166.44 257.544 166.607 258.204 166.94C258.871 167.273 259.404 167.737 259.804 168.33V166.76H262.294V177.28C262.294 178.333 262.074 179.25 261.634 180.03C261.201 180.817 260.551 181.423 259.684 181.85C258.817 182.283 257.744 182.5 256.464 182.5ZM256.684 175.19C257.311 175.19 257.864 175.05 258.344 174.77C258.824 174.483 259.201 174.093 259.474 173.6C259.747 173.1 259.884 172.53 259.884 171.89C259.884 171.25 259.744 170.68 259.464 170.18C259.191 169.673 258.814 169.28 258.334 169C257.861 168.713 257.317 168.57 256.704 168.57C256.091 168.57 255.544 168.713 255.064 169C254.584 169.28 254.207 169.673 253.934 170.18C253.661 170.68 253.524 171.25 253.524 171.89C253.524 172.53 253.657 173.1 253.924 173.6C254.197 174.093 254.571 174.483 255.044 174.77C255.524 175.05 256.071 175.19 256.684 175.19ZM271.44 177V166.76H273.93V177H271.44ZM272.69 164.66C272.416 164.66 272.163 164.593 271.93 164.46C271.703 164.32 271.52 164.137 271.38 163.91C271.246 163.677 271.18 163.42 271.18 163.14C271.18 162.867 271.246 162.617 271.38 162.39C271.52 162.163 271.703 161.983 271.93 161.85C272.163 161.71 272.416 161.64 272.69 161.64C272.97 161.64 273.22 161.71 273.44 161.85C273.666 161.983 273.846 162.163 273.98 162.39C274.12 162.617 274.19 162.867 274.19 163.14C274.19 163.42 274.12 163.677 273.98 163.91C273.846 164.137 273.666 164.32 273.44 164.46C273.22 164.593 272.97 164.66 272.69 164.66ZM277.797 177V166.76H280.287V167.99C280.641 167.537 281.111 167.167 281.697 166.88C282.291 166.587 282.967 166.44 283.727 166.44C284.514 166.44 285.201 166.61 285.787 166.95C286.381 167.283 286.841 167.757 287.167 168.37C287.494 168.983 287.657 169.71 287.657 170.55V177H285.167V171.07C285.167 170.217 284.954 169.56 284.527 169.1C284.107 168.633 283.524 168.4 282.777 168.4C282.264 168.4 281.821 168.507 281.447 168.72C281.074 168.927 280.787 169.207 280.587 169.56C280.387 169.907 280.287 170.293 280.287 170.72V177H277.797Z" fill="white"/>
<defs>
<filter id="filter0_d_4_2869" x="-40" y="137" width="749" height="210" filterUnits="userSpaceOnUse" color-interpolation-filters="sRGB">
<feFlood flood-opacity="0" result="BackgroundImageFix"/>
<feColorMatrix in="SourceAlpha" type="matrix" values="0 0 0 0 0 0 0 0 0 0 0 0 0 0 0 0 0 0 127 0" result="hardAlpha"/>
<feOffset dy="1.1966"/>
<feGaussianBlur stdDeviation="14.9575"/>
<feColorMatrix type="matrix" values="0 0 0 0 0.269263 0 0 0 0 0.166562 0 0 0 0 0.4875 0 0 0 0.1 0"/>
<feBlend mode="normal" in2="BackgroundImageFix" result="effect1_dropShadow_4_2869"/>
<feBlend mode="normal" in="SourceGraphic" in2="effect1_dropShadow_4_2869" result="shape"/>
</filter>
<linearGradient id="paint0_linear_4_2869" x1="82.8973" y1="266.577" x2="128.409" y2="113.015" gradientUnits="userSpaceOnUse">
<stop stop-color="white" stop-opacity="0.4"/>
<stop offset="1" stop-color="white" stop-opacity="0.07"/>
</linearGradient>
<linearGradient id="paint1_linear_4_2869" x1="62.7923" y1="217.865" x2="66.1486" y2="281.385" gradientUnits="userSpaceOnUse">
<stop stop-color="white" stop-opacity="0.5"/>
<stop offset="0.352567" stop-color="white" stop-opacity="0"/>
<stop offset="0.646925" stop-color="white" stop-opacity="0"/>
<stop offset="1" stop-color="white" stop-opacity="0.54"/>
</linearGradient>
</defs>
</svg>
